<?xml version="1.0" encoding="UTF-8"?>
<svg id="_레이어_1" data-name="레이어 1" xmlns="http://www.w3.org/2000/svg" xmlns:xlink="http://www.w3.org/1999/xlink" viewBox="0 0 1115.74 340.32">
  <defs>
    <style>
      .cls-1 {
        fill: none;
      }

      .cls-2 {
        clip-path: url(#clippath-1);
      }

      .cls-3 {
        fill: #474645;
      }

      .cls-4 {
        fill: #464645;
      }

      .cls-5 {
        clip-path: url(#clippath);
      }
    </style>
    <clipPath id="clippath">
      <rect class="cls-1" x="28.67" y="61.55" width="167.82" height="258.67"/>
    </clipPath>
    <clipPath id="clippath-1">
      <rect class="cls-1" x="263.16" y="9.55" width="29.66" height="25.33"/>
    </clipPath>
  </defs>
  <path class="cls-4" d="M56.87,102.93c-1.15-.35-1.89,2.03-.71,2.34,4.19,1.21,9.24,5.7,9.21,10.79-2.73-3.61-5.9-8.07-10.68-7.18-1.21.25-1.21,2.71.02,2.42,4.04-.84,6.61,2.87,9.13,5.98-3.39-1.15-6.9-1.71-10.35-2.69-1.17-.34-1.43,2.15-.27,2.44,3.41.86,6.91,1.24,10.26,2.31-3.42,2.14-8.05,2.6-11.67,2.28-1.25-.11-1.37,2.42-.12,2.48,3.96.23,8.57-.5,12.35-2.74-2.49,4.26-7.39,6.94-11.71,7.03-1.21,0-1.19,2.52.02,2.46,2.96-.13,6.24-1.46,8.92-3.48,1.33-1.02,2.53-2.21,3.44-3.57.97-1.35,1.82-2.86,2.23-4.58.04-.05.05-.11.08-.16,7.9.96,15.78,1.99,23.69,2.78,6.9.78,13.89,1.84,20.73,2.11,1.18.06.69-.67-.45-.77-7.18-.48-14.71-1.86-21.94-2.91-7.28-.96-14.55-2.14-21.83-3.24.38-3.31-.97-6.3-2.96-8.81-1.93-2.47-4.66-4.48-7.39-5.29Z"/>
  <path class="cls-4" d="M54.8,68.42c-.99-.64-2.96,1.74-1.94,2.35,2.47,1.5,4.37,4.78,5.23,8.49.97,3.83.91,8.05-.76,12.09.96-7.11-4.86-13.88-8.16-17.41-.81-.88-2.58,1.7-1.74,2.54,2.8,2.82,8.23,8.7,7.94,14.7-4.11-3.05-7.39-7.48-11.98-9.7-1.06-.51-2.59,2.23-1.51,2.7,4.34,1.93,7.54,5.81,11.34,8.68-1.93.36-3.91.83-5.79.85-3.4.06-6.31-1.24-9.6-1.38-1.23-.04-1.97,2.94-.72,2.94,3.3.05,6.31,1.26,9.65,1.11,2.78-.14,5.81-1.26,8.71-1.48-.11.17-.2.3-.31.47-2.84,3.82-5.93,5.36-9.51,5.94-3.52.59-7.09.31-10.04.86-1.24.23-1.69,3.23-.42,2.96,7.21-1.44,16.41-.1,22.03-9.52,4.67.63,8.91,4.41,12.89,6.53,4.92,2.71,9.82,5.47,14.8,8.09l26.55,13.74c1.05.55,1.36-.05.33-.64l-27.66-15.4-15.32-8.99c-3.34-1.9-6.45-4.79-10.32-5.62,1.11-2.49,1.95-4.84,2.23-7.29.29-2.44.16-4.89-.17-7.11-.74-4.51-2.79-8.59-5.74-10.52Z"/>
  <path class="cls-4" d="M85.04,75.58c-.62-.95-2.57.36-1.91,1.29,2.34,3.47,3.14,9.6.14,13.4.18-4.32.55-9.5-3.43-11.73-1.02-.55-2.49,1.26-1.43,1.78,3.38,1.79,3.13,6.18,2.96,9.85-1.72-2.86-3.92-5.4-5.8-8.18-.64-.96-2.43.59-1.72,1.55,1.95,2.69,4.24,5.09,6.02,7.9-3.74-.51-7.36-2.98-9.78-5.41-.81-.81-2.48.9-1.64,1.68,2.7,2.55,6.6,4.94,10.63,5.55-4.45,1.5-9.56.54-12.75-2.04-.88-.72-2.38,1.11-1.47,1.81,2.22,1.71,5.4,2.72,8.55,2.88,3.1.07,6.36-.48,9.04-2.45.05-.01.1-.05.15-.07,5.13,5.49,10.21,11.03,15.44,16.4,4.52,4.74,8.93,9.78,13.7,14.1.79.73,1.01.04.21-.77-4.95-4.74-9.53-10.31-14.12-15.45-4.69-5.12-9.22-10.39-13.81-15.6,4.3-4.4,3.92-11.87,1.05-16.49Z"/>
  <path class="cls-4" d="M103.62,46.93c-.33-1.08-3.27-.52-2.89.56.9,2.64.26,6.24-1.41,9.55-1.71,3.2-4.28,6.6-8.08,8.4,5.16-4.56,5.01-13.36,4.8-17.86-.06-1.19-2.98-.43-2.88.76.31,3.77.73,11.67-3.27,15.76-1.16-4.8-.78-9.98-2.81-14.49-.48-1.05-3.35-.07-2.82.99,2.01,4.1,1.97,8.96,3.01,13.44-1.65-.91-3.39-1.76-4.79-2.9-2.54-2.05-3.92-4.86-6.28-7.04-.9-.81-3.26.99-2.34,1.75,2.41,2.07,3.87,4.81,6.42,6.76,2.19,1.72,5.11,2.75,7.38,4.34-.18.05-.33.1-.53.17-4.48,1.06-7.73.22-10.69-1.48-2.94-1.69-5.44-4.14-7.97-5.63-1.07-.63-3.21,1.38-2.12,1.94,3.06,1.63,6.14,4.22,9.7,5.93,3.57,1.7,7.34,2.29,12.47.68,3.05,3.32,3.84,8.76,5.47,12.79,1.96,5.05,3.87,10.12,5.93,15.13l11.09,26.55c.44,1.05,1.01.77.62-.3l-10.9-28.47-5.74-16.11c-1.29-3.47-1.8-7.55-4.14-10.53,4.82-1.95,8.17-5.57,10.48-9.29,2.24-3.81,3.27-8.11,2.28-11.36Z"/>
  <path class="cls-4" d="M122.99,66.17c.15-1.2-2.33-1.46-2.43-.25-.47,4.42-3.99,9.9-9.01,10.97,3.08-3.42,6.9-7.34,5.2-11.88-.45-1.14-2.87-.67-2.37.48,1.53,3.76-1.67,7.15-4.3,10.02.55-3.49.49-7.05.86-10.59.14-1.2-2.37-1.18-2.45.03-.25,3.52-.02,7.02-.5,10.52-2.68-2.94-3.93-7.4-4.25-11.03-.1-1.2-2.61-.93-2.47.26.45,3.92,1.98,8.49,4.82,11.71-4.63-1.76-8.12-6.18-8.94-10.35-.21-1.19-2.69-.68-2.42.49,1.42,5.81,7.11,11.74,13.96,12.27.06.03.12.03.17.05.42,7.94.77,15.89,1.36,23.82.43,6.93.57,13.99,1.5,20.79.15,1.19.8.72.7-.46-.79-7.21-.71-14.84-.94-22.14-.31-7.35-.41-14.7-.57-22.06,6.49-.67,11.27-6.94,12.09-12.67Z"/>
  <path class="cls-4" d="M157.8,55.71c.47-1.11-2.3-2.64-2.73-1.51-1.07,2.75-4.05,5.26-7.67,6.81-3.59,1.44-7.99,2.45-12.31,1.31,7.3-.18,13.19-7.45,16.1-11.27.76-1.01-2.15-2.36-2.86-1.34-2.33,3.28-7.36,9.98-13.41,10.6,2.36-4.73,6.18-8.67,7.62-13.73.34-1.2-2.68-2.33-2.98-1.1-1.17,4.71-4.52,8.65-6.73,13-.72-1.87-1.55-3.76-1.92-5.65-.68-3.41.14-6.64-.32-10.01-.18-1.24-3.33-1.41-3.1-.17.55,3.32-.14,6.56.62,9.88.61,2.87,2.29,5.73,3.04,8.57-.19-.08-.34-.15-.54-.22-4.36-2.21-6.45-5.08-7.69-8.51-1.24-3.38-1.6-7.08-2.66-10.03-.45-1.22-3.55-1.06-3.06.15,1.38,3.42,2.12,7.61,3.85,11.44,1.74,3.84,4.43,6.85,9.69,9.07.21,4.79-2.85,9.75-4.28,14.14-1.85,5.45-3.76,10.88-5.51,16.35l-9.1,29.2c-.36,1.15.29,1.32.71.18l10.58-30.61,6.33-17.04c1.32-3.71,3.69-7.37,3.83-11.4,5.25,1.68,10.45,1.05,14.88-.42,4.44-1.56,8.21-4.37,9.62-7.69Z"/>
  <g class="cls-5">
    <path class="cls-4" d="M194.61,125.5c-3.17,1.11-6.54,1.01-9.72,2.32-2.72,1.11-5.2,3.25-7.83,4.49.04-.2.07-.36.11-.57,1.25-4.7,4.02-7.23,7.03-9.04,3.08-1.8,6.65-2.79,9.34-4.33,1.14-.65.6-3.67-.54-2.97-3.23,1.94-7.31,3.4-10.68,5.74-1.7,1.18-3.19,2.57-4.39,4.34-1.31,1.78-2.29,3.94-2.81,6.75-4.65,1.05-10.09-1.1-14.67-1.74-5.69-.87-11.37-1.8-17.07-2.56l-27.29-3.47c5.67-1.07,11.64-1.71,17.35-2.5,6.6-.99,13.23-1.79,19.85-2.65.72,2.97,2.42,5.24,4.8,6.93,2.38,1.67,5.31,2.72,7.89,2.75,1.1.02,1.04-2.24-.06-2.21-2.01.04-4.39-.66-6.4-1.88-2-1.22-3.58-2.94-4.39-5.19,3.55,2.44,7.12,5.54,11.18,3.55,1.02-.52.46-2.66-.56-2.1-3.23,1.74-6.63-.82-9.56-2.91,3.23.16,6.43-.23,9.67-.25,1.1.01.78-2.25-.3-2.21-3.18.1-6.32.66-9.48.56,2.47-2.72,6.26-4.28,9.54-4.91,1.07-.2.54-2.45-.53-2.2-3.49.79-7.46,2.63-10.04,5.49.95-4.31,4.85-7.97,8.46-9.1,1.05-.31.31-2.47-.73-2.12-2.55.86-5.03,2.84-6.77,5.26-1.94,2.49-3.01,5.36-2.95,8.55-.03.05-.02.1-.04.16-7.13,1.15-14.26,2.23-21.37,3.53-5.4.92-10.89,1.68-16.23,2.84l26.14-15.71,15.77-8.98c3.4-1.99,7.51-3.26,10.26-6.29,1.47,2.35,3.32,4.2,5.37,5.69,1.92,1.55,4.09,2.72,6.32,3.54,4.51,1.61,9.07,1.93,12.31.29,1.13-.56,0-3.54-1.09-2.94-2.58,1.42-6.49,1.43-10.3.31-1.91-.56-3.77-1.43-5.5-2.57-1.81-1.11-3.45-2.52-4.8-4.32,5.91,4.45,14.83,2.78,19.58,1.69,1.19-.27-.1-3.21-1.27-2.9-3.82.98-12.1,2.96-17.15-.46,4.78-2.08,10.32-2.68,14.65-5.64.99-.68-.57-3.51-1.55-2.78-3.94,2.88-8.93,3.68-13.47,5.63.63-1.89,1.19-3.84,2.11-5.52,1.65-3.03,4.34-4.98,6.17-7.86.7-1.09-1.53-3.29-2.19-2.17-1.7,2.88-4.35,4.96-5.96,8.02-1.38,2.59-1.89,5.83-3.11,8.47-.1-.18-.18-.32-.28-.51-2.05-4.41-1.58-8.1-.43-11.44,1.21-3.37,3.31-6.42,4.39-9.34.47-1.26-1.93-3.18-2.35-1.91-1.16,3.51-3.4,7.29-4.46,11.26-.54,1.99-.81,4.04-.57,6.16.15,2.21.78,4.49,2.19,6.97-2.89,3.79-8.45,5.64-12.36,8.09-4.92,2.99-9.87,5.93-14.73,9.01l-24.96,16.05c-.23-.06-.48-.07-.73.01.06-.07.13-.14.19-.22,4.46-6.66,9.97-13.09,14.99-19.45,4.97-6.47,10.15-12.78,15.24-19.14,1.52,1.08,3.19,1.68,4.93,1.94,1.66.36,3.41.36,5.16.1,3.49-.52,6.96-2.07,9.26-4.23.98-.91-.97-2.87-1.91-1.92-3.61,3.49-10.4,5.52-15.48,2.9,5.14-.8,11.04-1.23,12.88-6.35.49-1.36-1.94-2.65-2.33-1.33-1.37,4.26-6.52,4.89-10.83,5.48,2.97-2.58,5.46-5.65,8.29-8.39.97-.93-1.19-2.67-2.11-1.72-2.71,2.78-5,5.9-7.9,8.55-.2-4.4,1.91-9.07,4.23-12.38.77-1.09-1.57-2.65-2.3-1.53-2.41,3.65-4.36,8.63-4.24,13.38-2.69-4.76-2.49-11.04-.23-15.16.67-1.16-1.79-2.49-2.41-1.3-2.92,5.93-2.34,15.07,3.13,20.35.05.07.07.1.11.17-5.31,7.04-10.67,14.03-15.83,21.18-4.58,6.19-9.47,12.27-13.58,18.76-.2.31-.27.53-.26.67-.13.03-.18.09-.23.15-.16-.06-.39-.07-.73-.02l-31.81,6.13-17.92,3.03c-3.87.7-8.21.48-11.79,2.38-.77-2.69-1.67-5.06-3.03-7.17-1.32-2.1-3.15-3.92-4.84-5.45-3.51-3.04-7.8-4.89-11.39-4.45-1.19.15-1.19,3.31.01,3.11,2.94-.45,6.53.87,9.69,3.21,3.33,2.35,5.97,5.69,7.36,9.95-3.94-6.19-12.91-7.67-17.83-8.26-1.21-.16-.91,3.02.29,3.13,4.06.36,12.14,1.39,15.89,6.29-5.23.31-10.71-1.01-15.78.27-1.17.3-.56,3.46.6,3.11,4.67-1.34,9.72-.4,14.59-.66-1.28,1.56-2.52,3.22-3.98,4.48-2.64,2.29-5.76,3.18-8.44,5.24-.99.78.4,3.6,1.36,2.79,2.63-2.14,5.78-3.17,8.3-5.48,2.08-1.95,3.74-4.81,5.85-6.89.03.2.05.36.07.58.27,4.88-1.11,8.11-3.54,10.91-2.34,2.78-5.38,4.93-7.31,7.29-.82.99.81,3.64,1.63,2.59,4.7-5.88,12.8-10.88,11.01-21.97,4.07-2.57,9.88-2.4,14.4-3.35,5.64-1.11,11.3-2.17,16.92-3.39l29.85-6.69s.05-.02.1-.04c-5.2,3.76-11.08,7.1-16.59,10.52-5.65,3.6-11.43,7.04-17.16,10.53-1.67-2.55-4.4-3.82-7.23-4.42-2.79-.6-5.88-.4-8.27.63-1.01.43-.12,2.52.88,2.05,3.64-1.61,9.77-1.42,12.76,2.14-4.03-.92-8.87-2.17-11.68,1.25-.71.88.74,2.6,1.43,1.68,2.32-2.95,6.32-1.88,9.89-1.18-3.05,1.18-5.83,2.85-8.81,4.19-1.03.45.26,2.35,1.24,1.87,2.89-1.4,5.55-3.18,8.52-4.4-1.14,3.5-4.1,6.54-6.82,8.44-.94.66.48,2.47,1.38,1.8,2.92-2.18,5.69-5.38,7.02-9.16.77,4.42-1.1,9.2-4.07,11.79-.83.71.63,2.48,1.47,1.71,1.97-1.8,3.49-4.67,4.18-7.67.65-2.99.53-6.08-.8-9.02,0-.06-.03-.1-.04-.16,6.08-3.96,12.19-7.86,18.19-11.95,3.71-2.46,7.53-4.86,11.2-7.39-23.19,22.19-36.3,52.72-45,83.22-5.53,19.39-6.84,34.13-8.82,54.19-.96,9.76-1.18,17.02-1.98,26.79-.72,8.75-1.94,17.56-1.34,26.35.1,1.54,2.5,1.42,2.4-.13-.59-8.75.63-17.49,1.34-26.2.82-9.98,1.03-17.46,2.04-27.44,1.95-19.07,3.05-32.82,8.2-51.27,8.8-31.47,22.26-62.99,46.65-85.47-1.71,6.31-4.06,12.74-6.11,18.97-2.22,7.01-4.65,13.96-7.02,20.93-6.3-1.65-13.04,2.78-15.71,7.77-.55,1.06,1.64,2.26,2.17,1.13,1.97-4.03,7.22-8.07,12.26-7.25-4.09,2.22-8.95,4.34-8.94,9.28.03,1.24,2.44,1.72,2.38.45-.12-4.13,3.96-5.99,7.5-8-1.73,3.12-2.89,6.48-4.45,9.7-.54,1.08,1.86,1.83,2.35.73,1.44-3.2,2.42-6.57,4.06-9.67,1.48,3.83,1.16,8.36.21,11.89-.31,1.17,2.18,1.69,2.44.51.91-3.85,1.01-8.61-.58-12.56,3.8,2.99,5.56,8.57,4.91,12.77-.21,1.24,2.3,1.51,2.45.32.64-5.88-2.71-13.48-8.94-16.35-.04-.05-.1-.07-.15-.11,2.32-7.6,4.71-15.18,6.88-22.84,1.83-6.17,3.89-12.38,5.35-18.61.04-.03.07-.06.11-.09l.5,28.97-.1,17.4c.03,3.77-.9,7.81.3,11.53-5.27.43-9.7,2.36-13.23,5.36-3.47,2.93-5.93,6.51-6.11,10.02-.06,1.16,2.93,1.73,2.95.57.06-2.82,1.92-6.06,4.67-8.73,2.77-2.67,6.37-4.57,10.62-5.28-3.28,1.45-5.57,4.19-7.29,7.08-1.71,2.94-2.78,6.15-3.45,8.39-.35,1.12,2.71,1.41,3.01.29,1.02-3.67,3.32-11.28,8.55-13.99-.57,4.97-2.71,9.89-2.34,14.89.09,1.15,3.16,1.16,3.03,0-.49-4.64,1.21-9.22,1.78-13.83,1.26,1.52,2.61,2.89,3.55,4.43,1.71,2.79,2.04,5.96,3.54,8.84.57,1.07,3.44.29,2.84-.78-1.57-2.85-2.02-5.99-3.78-8.78-1.49-2.39-3.9-4.25-5.51-6.59.19.01.35.03.56.04,4.6.3,7.44,2.45,9.67,5.16,2.2,2.58,3.72,5.77,5.63,8.03.81.95,3.57-.11,2.73-1.05-4.77-5.49-8.11-13.93-18.83-14.02-1.76-4.3-.63-9.73-.78-14.15-.13-5.51-.18-11.01-.41-16.52l-1.26-26.72c2.63,5.66,4.86,11.82,7.18,17.65,2.67,6.45,5.14,12.98,7.67,19.49-5.59,2.64-7.78,9.97-6.69,15.22.26,1.11,2.57.63,2.27-.49-1.02-4.13.32-10.31,4.5-12.74-1.63,4.07-3.85,8.62-.84,12.19.78.89,2.82-.24,1.99-1.13-2.61-2.94-.76-6.75.58-10.38.65,3.32,1.85,6.47,2.69,9.77.27,1.12,2.46.18,2.15-.91-.9-3.2-2.24-6.26-2.95-9.51,3.41,1.87,5.96,5.39,7.41,8.52.48,1.04,2.6-.1,2.08-1.13-1.69-3.36-4.51-6.85-8.08-8.78,4.6-.12,9.26,2.84,11.35,6.29.6,1.03,2.6-.28,1.97-1.26-3.12-4.67-10.19-8.15-16.47-6.43-.06-.02-.11,0-.17,0-2.95-6.94-5.84-13.91-8.94-20.8-2.36-5.44-4.6-11.02-7.22-16.31l20.13,23.16,11.59,13.98c2.55,2.99,4.52,6.84,7.97,9.01-3.95,3.86-6.18,8.41-7,13.16-.83,4.66-.37,9.19,1.83,12.11.73.97,3.51-.58,2.73-1.53-1.84-2.29-2.53-6.11-2.13-10.1.43-3.99,2.01-7.94,4.95-11.35-3.27,6.67-.2,14.99,1.77,19.57.47,1.13,3.11-.69,2.6-1.78-1.64-3.6-4.93-11.27-2.54-16.93,2.88,4.35,4.46,9.72,8.11,13.47.84.86,3.32-1.2,2.43-2.03-3.51-3.38-5.21-8.19-7.85-12.26,2.02.36,3.98.51,5.8,1.14,3.26,1.09,5.65,3.41,8.78,4.69,1.18.48,2.97-2.07,1.77-2.52-3.18-1.22-5.65-3.44-8.94-4.49-2.78-.89-6.03-.82-8.83-1.56.15-.13.28-.23.44-.37,7.83-5.61,14.95-.88,21.1.28,1.29.23,2.81-2.45,1.49-2.64-7.57-1.25-15.83-5.71-24.47,1.44-4.3-2.27-7.04-7.35-10.13-10.78-3.79-4.32-7.53-8.68-11.42-12.93l-19.53-21.16c6.02,2.81,12.04,6.31,17.91,9.47,6.52,3.41,12.93,7.02,19.38,10.56-1.29,3.1-1.26,6.22-.22,9.29,1.05,3.05,2.93,5.86,5.19,7.56,1.01.76,2.42-1.29,1.42-1.98-3.67-2.66-6.56-8.42-4.99-13.31,1.58,4.48,2.72,9.56,7.62,10.43,1.23.19,2.15-2.07.88-2.23-4.03-.58-5.34-5.02-6.61-8.8,2.77,2.24,5.88,3.97,8.76,6.06.97.72,2.15-1.49,1.16-2.17-2.89-1.97-6.04-3.53-8.79-5.67,3.95-.82,8.35.28,11.67,1.83,1.09.52,2.08-1.83.96-2.3-3.61-1.56-8.33-2.52-12.49-1.64,3.68-3.2,9.49-3.93,13.44-2.59,1.14.41,1.9-2,.74-2.36-2.83-.9-6.32-.74-9.45.27-3.3.97-6.17,2.8-8.16,5.69-.05.03-.08.08-.14.12-7.08-3.62-14.13-7.29-21.29-10.76-5.7-2.84-11.37-5.91-17.2-8.43.15-.14.25-.28.31-.42l29.85,4.72,17.86,3.26c3.88.65,7.84,2.33,11.9,1.77-.39,2.75-.18,5.35.45,7.81.49,2.43,1.38,4.71,2.56,6.78,2.4,4.13,5.73,7.32,9.26,8.14,1.23.3,2.23-2.71,1.03-2.95-2.89-.57-5.9-3.08-8.08-6.39-2.09-3.3-3.66-7.41-3.46-11.9,1.65,7.21,9.6,11.67,13.91,13.89,1.09.56,1.99-2.52.9-3.03-3.6-1.72-11.18-5.52-12.84-11.38,4.99,1.48,9.63,4.58,14.84,5.1,1.2.12,1.82-3.05.6-3.12-4.85-.33-9.22-2.92-13.94-4.35,1.69-1.03,3.38-2.18,5.16-2.87,3.21-1.26,6.53-1.03,9.77-2.06,1.26-.42.98-3.54-.25-3.1Z"/>
  </g>
  <path class="cls-4" d="M286.82,87.33c-2.58,1.42-6.49,1.43-10.3.31-1.91-.56-3.76-1.43-5.5-2.57-1.81-1.1-3.45-2.52-4.8-4.31,5.91,4.45,14.83,2.77,19.58,1.69,1.19-.27-.1-3.21-1.27-2.9-3.83.98-12.1,2.95-17.15-.46,4.78-2.07,10.32-2.68,14.65-5.64,1-.68-.57-3.51-1.54-2.78-3.94,2.88-8.93,3.69-13.47,5.63.64-1.88,1.19-3.84,2.11-5.52,1.65-3.03,4.34-4.99,6.17-7.86.7-1.1-1.53-3.29-2.19-2.17-1.7,2.88-4.35,4.96-5.96,8.02-1.38,2.6-1.89,5.83-3.11,8.47-.1-.18-.18-.32-.28-.51-2.04-4.41-1.58-8.1-.43-11.44,1.21-3.37,3.31-6.42,4.39-9.34.48-1.26-1.93-3.18-2.35-1.91-1.16,3.51-3.39,7.29-4.46,11.26-.54,1.99-.81,4.04-.57,6.17.14,2.2.78,4.49,2.19,6.97-2.9,3.79-6.86,5.51-10.77,7.96-2.88,1.75-7.29,3.51-10.06,6.18l11.96-5.56c3.39-1.99,7.51-3.26,10.26-6.29,1.47,2.35,3.32,4.2,5.37,5.69,1.92,1.55,4.09,2.72,6.32,3.54,4.51,1.61,9.07,1.93,12.3.29,1.14-.56.01-3.53-1.08-2.93Z"/>
  <path class="cls-4" d="M229.8,49.54c-1.65,1.6-4.59,2.43-7.68,2.37-1.56-.02-3.13-.29-4.67-.79-1.59-.46-3.12-1.18-4.51-2.24,5.37,2.11,11.73-.99,15.08-2.8.84-.44-.74-2.39-1.56-1.91-2.67,1.54-8.49,4.74-12.98,3.21,3.16-2.56,7.2-4.16,9.84-7.28.61-.72-1.16-2.52-1.74-1.77-2.37,2.98-5.95,4.63-8.96,7.03.08-1.55.09-3.14.44-4.59.61-2.62,2.23-4.65,3.01-7.19.3-.97-1.83-2.16-2.1-1.18-.68,2.52-2.24,4.64-2.82,7.27-.49,2.23-.21,4.78-.58,7.02-.11-.11-.2-.2-.31-.33-2.45-2.89-2.87-5.77-2.7-8.52.21-2.79,1.16-5.52,1.36-7.94.1-1.05-2.11-1.99-2.17-.95-.15,2.88-1.04,6.19-1.02,9.4,0,1.61.23,3.2.85,4.75.56,1.63,1.52,3.21,3.09,4.79-1.39,3.45-4.01,5.57-6.45,8.22-1.8,1.91-4.76,4.15-6.29,6.73l7.84-6.65c2.14-2.2,4.97-4.01,6.41-6.86,1.59,1.47,3.37,2.47,5.21,3.16,1.77.77,3.65,1.2,5.49,1.35,3.72.28,7.22-.43,9.31-2.34.74-.66-.73-2.66-1.42-1.97Z"/>
  <g class="cls-2">
    <path class="cls-4" d="M291.55,30.61c-1.57.88-3.96.91-6.29.26-1.17-.33-2.31-.85-3.38-1.54-1.11-.66-2.13-1.52-2.96-2.6,3.64,2.68,9.07,1.6,11.97.91.72-.17-.09-1.95-.79-1.76-2.33.63-7.38,1.88-10.47-.17,2.91-1.3,6.29-1.7,8.91-3.53.61-.42-.37-2.14-.96-1.69-2.39,1.78-5.43,2.31-8.19,3.52.38-1.15.7-2.35,1.25-3.38.99-1.86,2.63-3.07,3.72-4.84.42-.68-.95-2-1.35-1.31-1.02,1.77-2.63,3.05-3.59,4.93-.82,1.59-1.12,3.57-1.85,5.19-.06-.1-.11-.2-.18-.31-1.28-2.68-1.02-4.93-.33-6.98.72-2.06,1.98-3.94,2.62-5.73.29-.77-1.19-1.93-1.45-1.15-.69,2.15-2.03,4.47-2.65,6.91-.32,1.22-.47,2.47-.31,3.77.1,1.34.5,2.73,1.38,4.24-1.74,2.33-4.16,3.41-6.53,4.93-1.74,1.08-4.43,2.18-6.1,3.84l7.27-3.47c2.06-1.24,4.56-2.04,6.23-3.91.91,1.43,2.05,2.54,3.31,3.44,1.18.93,2.52,1.64,3.89,2.13,2.76.96,5.55,1.13,7.52.1.66-.35-.04-2.16-.7-1.79Z"/>
  </g>
  <path class="cls-4" d="M202.73,314.81c-4.16,0-6.24-1.18-6.24-3.53,0-1.86,1.15-2.8,3.44-2.8l4.71.48c3.83,0,6.43-2.13,7.76-6.39,1.08-3.64,1.62-10.17,1.62-19.57v-67.67c0-9.39-.45-15.54-1.34-18.45-.89-2.93-1.96-4.91-3.21-5.95-1.26-1.06-2.86-1.59-4.84-1.59l-4.71.38c-2.29,0-3.44-.92-3.44-2.77,0-2.37,1.75-3.56,5.25-3.56s6.59.25,9.19.76c2.62.51,5.23.76,7.79.76,6.76,0,12.38-.32,16.86-.95,6.78-.95,14.57-1.43,23.35-1.43s17.53,1.57,26.25,4.71c8.73,3.12,16.23,7.56,22.49,13.3,13.36,12.22,20.04,28.27,20.04,48.14s-6.55,34.55-19.66,47.09c-13.55,13.03-31.32,19.53-53.29,19.53-5.31,0-10.45-.22-15.43-.67-9.27-.83-15.99-1.24-20.14-1.24l-16.48,1.43ZM229.08,269.19c0,11.37.29,21.94.86,31.72,8.5,4.41,18.06,6.62,28.67,6.62,7.74,0,15.76-1.82,24.08-5.47,13.15-5.74,21.74-16.04,25.77-30.86,1.48-5.23,2.23-12.03,2.23-20.36s-1.43-16.42-4.3-24.24c-2.85-7.84-6.82-14.45-11.93-19.82-10.42-11.05-24.43-16.58-42.06-16.58-12.6,0-19.82,1.67-21.67,5-.98,1.78-1.5,3.81-1.56,6.08-.06,2.27-.1,4.49-.1,6.65v61.28Z"/>
  <path class="cls-4" d="M338.88,314.45c-2.42,0-4.68.17-6.78.52-2.11.36-4.38.54-6.81.54s-3.65-.8-3.65-2.38,1.11-2.38,3.32-2.38,3.98-.42,4.97-1.27c1.61-1.46,3.2-3.85,4.76-7.16,1.57-3.31,3.02-6.41,4.36-9.3,1.35-2.89,2.9-6.25,4.64-10.11,1.75-3.86,3.69-8.17,5.79-12.93,2.1-4.76,4.32-9.81,6.64-15.15,6.06-14.05,10.06-23.51,11.99-28.36,1.94-4.85,3.02-7.54,3.23-8.06.22-.52.45-.99.68-1.41.61-.99,1.13-1.48,1.55-1.48s.8.06,1.08.19c.28.11.59.33.92.66.71.9,1.41,2.23,2.12,4,.71,1.78,1.66,4.18,2.87,7.21,1.21,3.03,2.59,6.47,4.15,10.29,1.57,3.83,3.23,7.95,4.97,12.34,1.75,4.4,3.52,8.79,5.3,13.17,1.77,4.38,3.5,8.63,5.18,12.74,1.68,4.12,3.18,7.83,4.5,11.14,4.06,9.89,6.67,15.82,7.8,17.76,1.14,1.93,2.1,3.27,2.85,4.03,1.18,1.13,2.93,1.7,5.25,1.7s3.49.8,3.49,2.38-1.5,2.38-4.48,2.38c-1.27,0-2.37-.06-3.3-.19-.93-.11-1.86-.21-2.8-.31-2.75-.38-5.19-.57-7.33-.57l-13.69,1.06c-3.08,0-4.62-.87-4.62-2.61,0-1.43.85-2.14,2.57-2.14l4.24.49c1.8,0,2.99-.38,3.56-1.15.57-.78.85-1.77.85-2.94,0-2.23-.94-5.68-2.83-10.37l-5.91-14.77h-39.39c-1.13,2.84-2.18,5.45-3.16,7.82-.98,2.36-1.86,4.65-2.66,6.88-1.27,3.6-1.91,6.43-1.91,8.48s.36,3.57,1.08,4.55c.74.96,2.13,1.44,4.17,1.44l4.26-.35c1.7,0,2.54.69,2.54,2.07,0,1.74-1.54,2.61-4.62,2.61l-11.78-1.06ZM387.93,275.99l-16.89-42.31c-3.27,8.28-9.11,22.38-17.53,42.31h34.42Z"/>
  <path class="cls-3" d="M433.01,315.51c-3.08,0-4.62-.87-4.62-2.61,0-1.38.85-2.07,2.54-2.07l3.49.35c2.84,0,4.73-1.58,5.68-4.73.85-2.7,1.27-7.53,1.27-14.49v-49.96c0-7-.33-11.55-.99-13.66-.66-2.12-1.45-3.56-2.38-4.33-.93-.78-2.12-1.18-3.58-1.18l-3.49.35c-1.7,0-2.54-.71-2.54-2.12,0-1.85,1.54-2.78,4.62-2.78l9.3,1.06c1.98,0,3.75-.14,5.32-.42l65.37,76.02v-53.07c0-6.91-.37-11.45-1.11-13.64-.74-2.18-1.58-3.66-2.52-4.43-.94-.78-2.18-1.18-3.7-1.18l-3.46.28c-1.71,0-2.57-.68-2.57-2.05,0-1.75,1.54-2.64,4.62-2.64,1.18,0,2.76.16,4.76.49,2.51.42,4.78.64,6.81.64s4.03-.19,5.96-.57c1.94-.38,4.22-.57,6.81-.57s3.91.88,3.91,2.64c0,1.37-.85,2.05-2.54,2.05l-3.49-.28c-2.89,0-4.81,1.59-5.75,4.76-.8,2.51-1.2,7.34-1.2,14.49v71.68c0,1.6-.14,2.66-.42,3.18-.28.53-.73.8-1.34.8-.87,0-2.21-1-4.05-2.99l-65.44-75.81v53.24c0,7.15.31,11.75.94,13.8.64,2.06,1.42,3.48,2.33,4.26.92.77,2.15,1.15,3.67,1.15l3.42-.35c1.7,0,2.54.69,2.54,2.07,0,1.74-1.36,2.61-4.08,2.61s-5.14-.18-7.26-.54c-2.11-.35-4.16-.52-6.15-.52s-3.93.17-5.84.52c-1.92.36-3.53.54-4.85.54Z"/>
  <path class="cls-3" d="M543.17,315.51c-3.08,0-4.62-.87-4.62-2.61,0-1.38.85-2.07,2.54-2.07l3.49.35c2.84,0,4.76-1.58,5.75-4.73.8-2.7,1.2-7.53,1.2-14.49v-50.11c0-6.96-.33-11.51-.99-13.66-.66-2.17-1.45-3.63-2.38-4.41-.93-.78-2.12-1.18-3.58-1.18l-3.49.28c-1.7,0-2.54-.68-2.54-2.05,0-1.75,1.3-2.64,3.89-2.64s4.88.19,6.81.57c1.94.38,3.87.57,5.77.57,5.01,0,9.17-.24,12.49-.71,5.02-.71,10.79-1.06,17.29-1.06s12.98,1.17,19.43,3.49c6.47,2.31,12.02,5.59,16.65,9.85,9.89,9.05,14.84,20.93,14.84,35.64s-4.85,25.58-14.56,34.86c-10.04,9.65-23.19,14.46-39.46,14.46-3.93,0-7.74-.16-11.43-.49-6.87-.61-11.84-.92-14.91-.92l-12.2,1.06ZM562.67,281.73c0,8.42.21,16.25.64,23.49,6.3,3.27,13.37,4.9,21.22,4.9,5.73,0,11.67-1.35,17.83-4.05,9.73-4.25,16.1-11.87,19.08-22.85,1.1-3.88,1.65-8.9,1.65-15.08s-1.06-12.16-3.18-17.95c-2.11-5.81-5.05-10.7-8.83-14.68-7.71-8.18-18.09-12.27-31.14-12.27-9.33,0-14.68,1.24-16.04,3.7-.72,1.32-1.11,2.82-1.15,4.5-.05,1.68-.07,3.32-.07,4.92v45.37Z"/>
  <path class="cls-3" d="M651.35,315.51c-2.61,0-3.91-.87-3.91-2.61,0-1.38.85-2.07,2.54-2.07l3.49.35c2.65,0,4.45-1.13,5.39-3.39,1.04-2.6,1.55-7.81,1.55-15.62v-50.32c0-7.77-.37-12.66-1.11-14.68-.72-2.01-1.54-3.27-2.45-3.79-.9-.52-2.03-.78-3.39-.78l-3.49.28c-1.7,0-2.54-.68-2.54-2.05,0-1.75,1.26-2.64,3.79-2.64s4.61.06,6.24.19c1.63.11,3.28.24,4.95.38,4.39.38,7.86.57,10.39.57s5.21-.05,8.06-.16c2.84-.12,6.01-.26,9.52-.4,9.22-.38,15.61-.57,19.18-.57s5.57.21,5.98.64c.41.42.61,1.01.61,1.74s-.02,1.44-.05,2.1c-.02.66-.05,1.39-.09,2.19-.05,1.1-.2,2.73-.45,4.88-.24,2.16-.52,3.6-.85,4.33-.33.72-.8,1.08-1.41,1.08s-1.04-.15-1.27-.45c-.24-.31-.56-1.02-.97-2.14-.39-1.11-1.1-2.17-2.12-3.18-1.02-1.02-2.63-1.86-4.81-2.52-4.26-1.28-12.13-1.93-23.63-1.93h-6.31c-1.13,0-1.86.18-2.17.52-.32.33-.47,1.08-.47,2.26v29.87c5.64.68,10.31,1.01,14.02,1.01s6.37-.02,7.96-.07c1.58-.05,2.9-.19,3.93-.42,1.85-.34,3.18-1.18,3.98-2.5,1.6-2.51,2.9-3.77,3.91-3.77,1.27,0,1.91.67,1.91,2l-2.47,10.08.28,5.39c0,3.41-.81,5.11-2.43,5.11-1.37,0-2.05-.91-2.05-2.73s-.11-3.18-.33-4.08c-.21-.91-.81-1.63-1.81-2.14-1.51-.75-5.2-1.13-11.07-1.13s-11.14.26-15.83.78v16.82c0,10.46.24,19.1.71,25.91,3.85.85,8.02,1.27,12.51,1.27s8.33-.12,11.52-.35c3.2-.24,5.96-.71,8.27-1.41,4.6-1.38,7.99-4.01,10.15-7.89.95-1.7,1.91-2.54,2.85-2.54s1.41.68,1.41,2.05c0,.57-.16,1.31-.49,2.21-.38,1.22-.92,3.06-1.63,5.49-.71,2.44-1.26,4.2-1.65,5.3-.38,1.08-.8,1.91-1.27,2.47-.71.94-2.11,1.41-4.19,1.41s-4.09-.02-6.03-.05c-1.93-.02-3.97-.05-6.1-.09-2.47-.09-6.28-.28-11.43-.57-12.88-.61-20.44-.82-22.66-.64-2.21.19-3.89.34-5.02.45-1.13.12-2.25.24-3.35.35-1.08.12-2.36.19-3.82.19Z"/>
  <path class="cls-3" d="M733.4,315.51c-2.61,0-3.91-.87-3.91-2.61,0-1.38.85-2.07,2.54-2.07l3.49.35c2.84,0,4.76-1.58,5.75-4.73.8-2.7,1.2-7.53,1.2-14.49v-50.11c0-6.96-.33-11.51-.99-13.66-.66-2.17-1.45-3.63-2.38-4.41-.93-.78-2.12-1.18-3.58-1.18l-3.49.28c-1.7,0-2.54-.68-2.54-2.05,0-1.75,1.3-2.64,3.89-2.64s5.08.19,7.42.57c2.36.38,4.79.57,7.33.57s4.94-.19,7.23-.57c2.29-.38,4.72-.57,7.3-.57s3.89.88,3.89,2.64c0,1.37-.86,2.05-2.57,2.05l-3.39-.28c-2.89,0-4.83,1.59-5.82,4.76-.77,2.51-1.15,7.34-1.15,14.49v40.09c0,10.37.24,18.96.73,25.77,3.44.94,7.26,1.41,11.45,1.41s7.83-.24,10.93-.71c3.11-.47,5.79-1.18,8.06-2.14,4.25-1.74,7.57-4.69,9.94-8.86.94-1.71,1.88-2.57,2.83-2.57s1.44.69,1.44,2.07c0,.57-.16,1.3-.49,2.19-.38,1.22-.93,3.06-1.65,5.51-.71,2.44-1.29,4.31-1.74,5.61-.44,1.31-.94,2.38-1.51,3.23-1.15,1.6-2.73,2.4-4.73,2.4s-3.92-.02-5.72-.05c-1.79-.02-3.67-.06-5.63-.14-1.97-.06-4.09-.16-6.36-.28-2.26-.11-4.84-.24-7.73-.38-2.89-.14-5.41-.28-7.54-.4-2.12-.11-4.23-.16-6.34-.16s-3.86.05-5.25.16c-1.4.12-2.66.24-3.79.35-1.13.12-2.25.24-3.35.35-1.08.12-2.33.19-3.75.19Z"/>
  <path class="cls-3" d="M812.89,315.51c-3.08,0-4.62-.87-4.62-2.61,0-1.38.85-2.07,2.57-2.07l3.46.35c2.56,0,4.33-1.22,5.32-3.67,1.08-2.74,1.63-7.93,1.63-15.55l-.35-50.11c0-7.82-.42-12.73-1.25-14.75-.82-2.01-1.67-3.26-2.54-3.75-.88-.5-1.93-.75-3.16-.75l-3.49.28c-1.7,0-2.54-.68-2.54-2.05,0-1.75,1.3-2.64,3.89-2.64s5.08.19,7.42.57c2.36.38,4.81.57,7.35.57s4.99-.19,7.3-.57c2.32-.38,4.77-.57,7.35-.57s3.89.88,3.89,2.64c0,1.37-.86,2.05-2.57,2.05l-3.39-.28c-2.56,0-4.33,1.24-5.32,3.7-1.08,2.73-1.63,7.92-1.63,15.55l.35,50.11c0,7.62.45,12.47,1.37,14.56.92,2.07,1.86,3.37,2.8,3.89.95.52,2.05.78,3.27.78l3.42-.35c1.7,0,2.54.69,2.54,2.07,0,1.74-1.52,2.61-4.55,2.61-1.55,0-3.22-.14-4.97-.42-5.91-.94-10.93-1.11-15.08-.49s-6.97.92-8.48.92Z"/>
  <path class="cls-3" d="M857.74,266.4c0-7.14,1.33-13.71,4-19.69,2.69-5.98,6.3-11.14,10.86-15.48,4.57-4.33,9.86-7.69,15.88-10.08,6.01-2.39,12.5-3.58,19.46-3.58s13.41,1.27,19.36,3.79c5.97,2.53,11.08,6.02,15.34,10.48,8.95,9.41,13.43,21.35,13.43,35.83,0,13.73-4.62,25.21-13.85,34.44-9.42,9.41-21.4,14.11-35.92,14.11s-25.88-4.75-35.05-14.25c-9-9.38-13.5-21.23-13.5-35.57ZM869.89,262.35c0,6.16,1,12.2,3.02,18.14,2.01,5.94,4.86,11.11,8.55,15.52,7.9,9.55,17.88,14.32,29.94,14.32,9.33,0,16.97-3.5,22.94-10.51,6.14-7.19,9.21-16.65,9.21-28.39,0-13.86-3.72-25.36-11.14-34.49-7.39-9-16.73-13.5-28.03-13.5-9.33,0-17.35,3.55-24.05,10.65-6.96,7.39-10.44,16.8-10.44,28.24Z"/>
  <path class="cls-3" d="M972.81,315.51c-3.08,0-4.62-.87-4.62-2.61,0-1.38.85-2.07,2.54-2.07l3.49.35c2.84,0,4.73-1.58,5.68-4.73.85-2.7,1.27-7.53,1.27-14.49v-49.96c0-7-.33-11.55-.99-13.66-.66-2.12-1.45-3.56-2.38-4.33-.93-.78-2.12-1.18-3.58-1.18l-3.49.35c-1.7,0-2.54-.71-2.54-2.12,0-1.85,1.54-2.78,4.62-2.78l9.3,1.06c1.98,0,3.75-.14,5.32-.42l65.37,76.02v-53.07c0-6.91-.37-11.45-1.11-13.64-.74-2.18-1.58-3.66-2.52-4.43-.94-.78-2.18-1.18-3.7-1.18l-3.46.28c-1.71,0-2.57-.68-2.57-2.05,0-1.75,1.54-2.64,4.62-2.64,1.18,0,2.76.16,4.76.49,2.51.42,4.78.64,6.81.64s4.03-.19,5.96-.57c1.94-.38,4.22-.57,6.81-.57s3.91.88,3.91,2.64c0,1.37-.85,2.05-2.54,2.05l-3.49-.28c-2.89,0-4.81,1.59-5.75,4.76-.8,2.51-1.2,7.34-1.2,14.49v71.68c0,1.6-.14,2.66-.42,3.18-.28.53-.73.8-1.34.8-.87,0-2.21-1-4.05-2.99l-65.44-75.81v53.24c0,7.15.31,11.75.94,13.8.64,2.06,1.42,3.48,2.33,4.26.92.77,2.15,1.15,3.67,1.15l3.42-.35c1.7,0,2.54.69,2.54,2.07,0,1.74-1.36,2.61-4.08,2.61s-5.14-.18-7.26-.54c-2.11-.35-4.16-.52-6.15-.52s-3.93.17-5.84.52c-1.92.36-3.53.54-4.85.54Z"/>
</svg>