<svg xmlns="http://www.w3.org/2000/svg" xmlns:xlink="http://www.w3.org/1999/xlink" width="1000" zoomAndPan="magnify" viewBox="0 0 750 299.999988" height="400" preserveAspectRatio="xMidYMid meet" version="1.0"><defs><g/><clipPath id="b2b107759b"><path d="M 45.132812 69 L 171 69 L 171 263 L 45.132812 263 Z M 45.132812 69 " clip-rule="nonzero"/></clipPath><clipPath id="70701110a9"><path d="M 221 30 L 243.246094 30 L 243.246094 49 L 221 49 Z M 221 30 " clip-rule="nonzero"/></clipPath></defs><path fill="#ffbd59" d="M 66.28125 100.035156 C 65.417969 99.769531 64.867188 101.558594 65.746094 101.789062 C 68.886719 102.695312 72.675781 106.0625 72.65625 109.882812 C 70.605469 107.175781 68.230469 103.832031 64.648438 104.5 C 63.738281 104.6875 63.738281 106.535156 64.660156 106.316406 C 67.6875 105.6875 69.621094 108.46875 71.503906 110.800781 C 68.960938 109.9375 66.328125 109.519531 63.738281 108.785156 C 62.863281 108.527344 62.667969 110.398438 63.539062 110.617188 C 66.097656 111.265625 68.71875 111.546875 71.230469 112.347656 C 68.667969 113.949219 65.191406 114.296875 62.480469 114.058594 C 61.542969 113.976562 61.453125 115.875 62.390625 115.921875 C 65.363281 116.09375 68.820312 115.546875 71.652344 113.863281 C 69.78125 117.054688 66.109375 119.070312 62.867188 119.136719 C 61.960938 119.140625 61.972656 121.027344 62.878906 120.984375 C 65.101562 120.890625 67.5625 119.890625 69.570312 118.371094 C 70.570312 117.609375 71.464844 116.710938 72.152344 115.695312 C 72.882812 114.679688 73.515625 113.550781 73.824219 112.261719 C 73.851562 112.226562 73.859375 112.179688 73.882812 112.140625 C 79.804688 112.863281 85.71875 113.632812 91.652344 114.222656 C 96.824219 114.804688 102.070312 115.601562 107.203125 115.804688 C 108.085938 115.851562 107.722656 115.304688 106.867188 115.230469 C 101.484375 114.871094 95.832031 113.832031 90.414062 113.046875 C 84.953125 112.328125 79.5 111.441406 74.042969 110.613281 C 74.324219 108.128906 73.3125 105.890625 71.820312 104.003906 C 70.371094 102.152344 68.324219 100.644531 66.28125 100.035156 Z M 66.28125 100.035156 " fill-opacity="1" fill-rule="nonzero"/><path fill="#ffbd59" d="M 64.730469 74.148438 C 63.988281 73.667969 62.507812 75.453125 63.273438 75.914062 C 65.128906 77.039062 66.550781 79.5 67.195312 82.285156 C 67.925781 85.15625 67.878906 88.320312 66.628906 91.351562 C 67.347656 86.019531 62.980469 80.941406 60.507812 78.292969 C 59.898438 77.632812 58.574219 79.566406 59.203125 80.195312 C 61.304688 82.3125 65.378906 86.71875 65.160156 91.222656 C 62.078125 88.933594 59.621094 85.613281 56.171875 83.945312 C 55.378906 83.5625 54.226562 85.621094 55.042969 85.972656 C 58.296875 87.421875 60.695312 90.332031 63.550781 92.480469 C 62.101562 92.753906 60.621094 93.105469 59.207031 93.121094 C 56.660156 93.167969 54.472656 92.191406 52.003906 92.089844 C 51.078125 92.058594 50.527344 94.296875 51.460938 94.296875 C 53.9375 94.335938 56.191406 95.238281 58.695312 95.128906 C 60.78125 95.023438 63.050781 94.1875 65.226562 94.019531 C 65.140625 94.144531 65.078125 94.246094 64.992188 94.375 C 62.863281 97.242188 60.542969 98.398438 57.863281 98.832031 C 55.226562 99.277344 52.542969 99.066406 50.335938 99.476562 C 49.402344 99.648438 49.070312 101.902344 50.019531 101.695312 C 55.429688 100.613281 62.324219 101.621094 66.539062 94.554688 C 70.039062 95.023438 73.21875 97.859375 76.207031 99.453125 C 79.898438 101.484375 83.570312 103.558594 87.304688 105.519531 L 107.21875 115.824219 C 108.003906 116.234375 108.238281 115.789062 107.46875 115.347656 L 86.722656 103.800781 L 75.234375 97.054688 C 72.726562 95.628906 70.394531 93.460938 67.492188 92.839844 C 68.324219 90.972656 68.957031 89.210938 69.164062 87.375 C 69.382812 85.546875 69.28125 83.710938 69.039062 82.039062 C 68.484375 78.660156 66.945312 75.59375 64.730469 74.148438 Z M 64.730469 74.148438 " fill-opacity="1" fill-rule="nonzero"/><path fill="#ffbd59" d="M 87.410156 79.519531 C 86.945312 78.804688 85.480469 79.792969 85.976562 80.488281 C 87.734375 83.09375 88.332031 87.6875 86.078125 90.539062 C 86.210938 87.300781 86.488281 83.414062 83.507812 81.738281 C 82.742188 81.324219 81.640625 82.679688 82.433594 83.074219 C 84.96875 84.417969 84.78125 87.707031 84.652344 90.460938 C 83.363281 88.316406 81.714844 86.414062 80.300781 84.328125 C 79.824219 83.609375 78.476562 84.769531 79.007812 85.492188 C 80.46875 87.511719 82.1875 89.308594 83.519531 91.417969 C 80.714844 91.035156 78 89.183594 76.183594 87.363281 C 75.578125 86.757812 74.320312 88.035156 74.953125 88.621094 C 76.976562 90.53125 79.902344 92.324219 82.921875 92.78125 C 79.582031 93.90625 75.753906 93.183594 73.359375 91.25 C 72.699219 90.707031 71.574219 92.085938 72.257812 92.605469 C 73.921875 93.886719 76.304688 94.648438 78.667969 94.761719 C 80.992188 94.816406 83.4375 94.398438 85.445312 92.921875 C 85.484375 92.914062 85.519531 92.886719 85.558594 92.871094 C 89.402344 96.988281 93.214844 101.140625 97.136719 105.171875 C 100.523438 108.726562 103.835938 112.503906 107.414062 115.75 C 108.007812 116.296875 108.167969 115.777344 107.570312 115.175781 C 103.859375 111.617188 100.425781 107.445312 96.980469 103.589844 C 93.460938 99.75 90.066406 95.800781 86.625 91.890625 C 89.851562 88.589844 89.566406 82.988281 87.410156 79.519531 Z M 87.410156 79.519531 " fill-opacity="1" fill-rule="nonzero"/><path fill="#ffbd59" d="M 101.34375 58.03125 C 101.097656 57.21875 98.894531 57.640625 99.175781 58.453125 C 99.847656 60.429688 99.367188 63.136719 98.117188 65.613281 C 96.832031 68.011719 94.90625 70.5625 92.054688 71.910156 C 95.921875 68.488281 95.808594 61.890625 95.652344 58.511719 C 95.605469 57.617188 93.417969 58.191406 93.496094 59.078125 C 93.726562 61.90625 94.046875 67.832031 91.046875 70.894531 C 90.179688 67.292969 90.460938 63.410156 88.941406 60.023438 C 88.582031 59.234375 86.429688 59.96875 86.824219 60.769531 C 88.328125 63.84375 88.304688 67.492188 89.082031 70.851562 C 87.84375 70.167969 86.542969 69.53125 85.488281 68.679688 C 83.582031 67.144531 82.550781 65.03125 80.777344 63.402344 C 80.105469 62.796875 78.335938 64.144531 79.023438 64.714844 C 80.832031 66.265625 81.925781 68.320312 83.839844 69.78125 C 85.484375 71.070312 87.675781 71.84375 89.371094 73.035156 C 89.238281 73.074219 89.125 73.113281 88.976562 73.160156 C 85.617188 73.957031 83.175781 73.324219 80.960938 72.050781 C 78.753906 70.785156 76.882812 68.945312 74.980469 67.828125 C 74.175781 67.359375 72.574219 68.859375 73.390625 69.28125 C 75.683594 70.503906 77.992188 72.449219 80.664062 73.726562 C 83.339844 75 86.171875 75.441406 90.019531 74.234375 C 92.304688 76.722656 92.902344 80.800781 94.125 83.824219 C 95.597656 87.609375 97.027344 91.414062 98.570312 95.171875 L 106.890625 115.085938 C 107.21875 115.875 107.648438 115.664062 107.355469 114.863281 L 99.183594 93.507812 L 94.875 81.421875 C 93.90625 78.816406 93.523438 75.761719 91.769531 73.523438 C 95.382812 72.0625 97.898438 69.347656 99.632812 66.554688 C 101.3125 63.699219 102.085938 60.472656 101.34375 58.03125 Z M 101.34375 58.03125 " fill-opacity="1" fill-rule="nonzero"/><path fill="#ffbd59" d="M 115.871094 72.464844 C 115.980469 71.566406 114.121094 71.371094 114.046875 72.277344 C 113.695312 75.59375 111.054688 79.703125 107.292969 80.507812 C 109.605469 77.945312 112.46875 75.003906 111.191406 71.597656 C 110.855469 70.746094 109.039062 71.097656 109.414062 71.960938 C 110.558594 74.777344 108.164062 77.320312 106.191406 79.476562 C 106.605469 76.855469 106.5625 74.1875 106.835938 71.535156 C 106.9375 70.636719 105.058594 70.648438 104.996094 71.558594 C 104.808594 74.195312 104.980469 76.824219 104.621094 79.449219 C 102.609375 77.246094 101.671875 73.898438 101.433594 71.179688 C 101.359375 70.28125 99.476562 70.480469 99.582031 71.375 C 99.921875 74.3125 101.066406 77.742188 103.199219 80.160156 C 99.730469 78.84375 97.109375 75.527344 96.492188 72.394531 C 96.332031 71.5 94.476562 71.882812 94.675781 72.765625 C 95.742188 77.121094 100.011719 81.570312 105.144531 81.964844 C 105.1875 81.988281 105.234375 81.984375 105.269531 82.003906 C 105.582031 87.957031 105.847656 93.921875 106.289062 99.867188 C 106.609375 105.0625 106.71875 110.363281 107.414062 115.457031 C 107.523438 116.351562 108.015625 116 107.9375 115.113281 C 107.347656 109.707031 107.402344 103.980469 107.234375 98.511719 C 107 92.996094 106.929688 87.484375 106.804688 81.964844 C 111.675781 81.460938 115.257812 76.757812 115.871094 72.464844 Z M 115.871094 72.464844 " fill-opacity="1" fill-rule="nonzero"/><path fill="#ffbd59" d="M 141.980469 64.617188 C 142.335938 63.785156 140.253906 62.636719 139.929688 63.484375 C 139.125 65.546875 136.890625 67.429688 134.179688 68.589844 C 131.488281 69.667969 128.183594 70.429688 124.949219 69.570312 C 130.425781 69.4375 134.84375 63.980469 137.023438 61.121094 C 137.59375 60.363281 135.414062 59.347656 134.878906 60.117188 C 133.132812 62.578125 129.359375 67.601562 124.820312 68.066406 C 126.589844 64.515625 129.457031 61.566406 130.535156 57.769531 C 130.789062 56.867188 128.523438 56.019531 128.300781 56.941406 C 127.421875 60.472656 124.914062 63.425781 123.25 66.691406 C 122.710938 65.289062 122.089844 63.875 121.8125 62.457031 C 121.304688 59.902344 121.914062 57.476562 121.574219 54.949219 C 121.4375 54.015625 119.078125 53.890625 119.246094 54.824219 C 119.660156 57.316406 119.144531 59.746094 119.710938 62.234375 C 120.171875 64.386719 121.425781 66.535156 121.992188 68.660156 C 121.851562 68.601562 121.738281 68.550781 121.585938 68.492188 C 118.3125 66.832031 116.75 64.683594 115.820312 62.113281 C 114.886719 59.578125 114.621094 56.800781 113.828125 54.589844 C 113.492188 53.675781 111.164062 53.792969 111.535156 54.699219 C 112.566406 57.265625 113.125 60.410156 114.425781 63.277344 C 115.730469 66.15625 117.746094 68.417969 121.695312 70.082031 C 121.851562 73.671875 119.558594 77.394531 118.484375 80.6875 C 117.097656 84.777344 115.664062 88.84375 114.355469 92.953125 L 107.527344 114.851562 C 107.253906 115.714844 107.746094 115.84375 108.058594 114.988281 L 115.992188 92.03125 L 120.738281 79.253906 C 121.726562 76.472656 123.507812 73.726562 123.609375 70.703125 C 127.546875 71.964844 131.449219 71.488281 134.765625 70.386719 C 138.09375 69.214844 140.921875 67.109375 141.980469 64.617188 Z M 141.980469 64.617188 " fill-opacity="1" fill-rule="nonzero"/><g clip-path="url(#b2b107759b)"><path fill="#ffbd59" d="M 169.582031 116.957031 C 167.207031 117.789062 164.679688 117.710938 162.289062 118.695312 C 160.25 119.527344 158.390625 121.132812 156.417969 122.0625 C 156.445312 121.914062 156.46875 121.792969 156.5 121.636719 C 157.4375 118.109375 159.511719 116.214844 161.773438 114.859375 C 164.082031 113.507812 166.757812 112.769531 168.78125 111.613281 C 169.636719 111.125 169.230469 108.859375 168.378906 109.382812 C 165.953125 110.835938 162.898438 111.929688 160.367188 113.691406 C 159.09375 114.574219 157.972656 115.617188 157.074219 116.949219 C 156.09375 118.285156 155.359375 119.90625 154.96875 122.011719 C 151.480469 122.796875 147.398438 121.183594 143.964844 120.707031 C 139.695312 120.054688 135.4375 119.355469 131.160156 118.785156 L 110.695312 116.179688 C 114.949219 115.378906 119.421875 114.894531 123.707031 114.304688 C 128.65625 113.558594 133.632812 112.964844 138.597656 112.316406 C 139.140625 114.542969 140.414062 116.246094 142.199219 117.511719 C 143.980469 118.761719 146.179688 119.550781 148.117188 119.574219 C 148.941406 119.585938 148.894531 117.894531 148.070312 117.914062 C 146.5625 117.941406 144.777344 117.417969 143.273438 116.507812 C 141.773438 115.589844 140.585938 114.300781 139.980469 112.617188 C 142.644531 114.445312 145.320312 116.769531 148.363281 115.28125 C 149.125 114.890625 148.710938 113.285156 147.945312 113.703125 C 145.519531 115.007812 142.976562 113.089844 140.773438 111.519531 C 143.195312 111.640625 145.59375 111.34375 148.023438 111.332031 C 148.851562 111.339844 148.609375 109.644531 147.796875 109.671875 C 145.414062 109.75 143.054688 110.164062 140.683594 110.089844 C 142.535156 108.046875 145.378906 106.882812 147.835938 106.40625 C 148.640625 106.253906 148.238281 104.566406 147.441406 104.753906 C 144.820312 105.347656 141.847656 106.722656 139.914062 108.871094 C 140.628906 105.640625 143.550781 102.894531 146.261719 102.042969 C 147.050781 101.8125 146.492188 100.1875 145.710938 100.453125 C 143.796875 101.097656 141.941406 102.582031 140.636719 104.398438 C 139.179688 106.265625 138.378906 108.417969 138.425781 110.8125 C 138.40625 110.851562 138.410156 110.890625 138.398438 110.933594 C 133.054688 111.792969 127.703125 112.605469 122.371094 113.582031 C 118.324219 114.273438 114.203125 114.84375 110.195312 115.714844 L 129.800781 103.933594 L 141.628906 97.195312 C 144.175781 95.699219 147.261719 94.753906 149.324219 92.476562 C 150.425781 94.242188 151.816406 95.625 153.351562 96.746094 C 154.792969 97.90625 156.421875 98.789062 158.09375 99.402344 C 161.476562 100.609375 164.894531 100.851562 167.324219 99.621094 C 168.167969 99.199219 167.324219 96.96875 166.503906 97.417969 C 164.570312 98.480469 161.632812 98.492188 158.78125 97.652344 C 157.347656 97.234375 155.957031 96.582031 154.65625 95.722656 C 153.300781 94.890625 152.066406 93.832031 151.054688 92.484375 C 155.484375 95.824219 162.175781 94.566406 165.742188 93.753906 C 166.636719 93.554688 165.664062 91.347656 164.792969 91.582031 C 161.925781 92.320312 155.714844 93.800781 151.933594 91.238281 C 155.519531 89.679688 159.671875 89.226562 162.921875 87.011719 C 163.667969 86.5 162.492188 84.382812 161.757812 84.929688 C 158.800781 87.085938 155.0625 87.691406 151.65625 89.152344 C 152.128906 87.738281 152.546875 86.269531 153.242188 85.011719 C 154.480469 82.742188 156.5 81.273438 157.867188 79.117188 C 158.390625 78.296875 156.71875 76.652344 156.222656 77.492188 C 154.949219 79.652344 152.960938 81.214844 151.753906 83.507812 C 150.722656 85.453125 150.335938 87.878906 149.421875 89.863281 C 149.347656 89.726562 149.289062 89.621094 149.214844 89.480469 C 147.679688 86.175781 148.03125 83.40625 148.894531 80.902344 C 149.800781 78.375 151.375 76.085938 152.183594 73.894531 C 152.539062 72.949219 150.734375 71.507812 150.417969 72.464844 C 149.546875 75.09375 147.871094 77.929688 147.074219 80.90625 C 146.667969 82.402344 146.464844 83.933594 146.648438 85.527344 C 146.757812 87.183594 147.234375 88.894531 148.289062 90.757812 C 146.121094 93.601562 141.953125 94.988281 139.019531 96.828125 C 135.332031 99.070312 131.617188 101.273438 127.96875 103.585938 L 109.25 115.621094 C 109.074219 115.574219 108.886719 115.566406 108.699219 115.628906 C 108.746094 115.574219 108.792969 115.527344 108.839844 115.460938 C 112.1875 110.464844 116.320312 105.640625 120.082031 100.875 C 123.8125 96.023438 127.691406 91.292969 131.511719 86.523438 C 132.652344 87.332031 133.902344 87.78125 135.210938 87.976562 C 136.457031 88.246094 137.769531 88.246094 139.078125 88.050781 C 141.695312 87.660156 144.296875 86.5 146.019531 84.878906 C 146.753906 84.195312 145.292969 82.726562 144.585938 83.441406 C 141.878906 86.0625 136.785156 87.578125 132.976562 85.617188 C 136.828125 85.015625 141.253906 84.691406 142.636719 80.851562 C 143.007812 79.828125 141.183594 78.867188 140.890625 79.855469 C 139.863281 83.050781 136 83.523438 132.765625 83.964844 C 134.992188 82.03125 136.859375 79.730469 138.980469 77.675781 C 139.710938 76.980469 138.085938 75.671875 137.394531 76.386719 C 135.363281 78.472656 133.644531 80.8125 131.46875 82.796875 C 131.316406 79.5 132.902344 75.992188 134.644531 73.515625 C 135.222656 72.699219 133.46875 71.53125 132.921875 72.371094 C 131.117188 75.105469 129.652344 78.839844 129.742188 82.402344 C 127.722656 78.835938 127.871094 74.125 129.570312 71.03125 C 130.070312 70.160156 128.226562 69.164062 127.765625 70.058594 C 125.574219 74.503906 126.007812 81.359375 130.113281 85.320312 C 130.148438 85.375 130.167969 85.398438 130.195312 85.445312 C 126.214844 90.722656 122.191406 95.964844 118.324219 101.328125 C 114.886719 105.972656 111.222656 110.53125 108.136719 115.398438 C 107.984375 115.632812 107.933594 115.796875 107.945312 115.902344 C 107.847656 115.925781 107.808594 115.96875 107.773438 116.015625 C 107.652344 115.972656 107.480469 115.960938 107.222656 116 L 83.363281 120.59375 L 69.925781 122.863281 C 67.023438 123.390625 63.765625 123.222656 61.082031 124.644531 C 60.507812 122.628906 59.832031 120.847656 58.808594 119.269531 C 57.820312 117.695312 56.449219 116.332031 55.179688 115.179688 C 52.546875 112.898438 49.328125 111.515625 46.636719 111.84375 C 45.742188 111.953125 45.742188 114.324219 46.644531 114.175781 C 48.847656 113.839844 51.539062 114.828125 53.910156 116.582031 C 56.410156 118.347656 58.390625 120.851562 59.429688 124.046875 C 56.476562 119.402344 49.746094 118.296875 46.058594 117.851562 C 45.148438 117.734375 45.375 120.117188 46.277344 120.195312 C 49.324219 120.46875 55.378906 121.234375 58.195312 124.910156 C 54.273438 125.140625 50.160156 124.152344 46.363281 125.113281 C 45.484375 125.335938 45.941406 127.710938 46.816406 127.449219 C 50.316406 126.445312 54.109375 127.148438 57.757812 126.957031 C 56.796875 128.128906 55.871094 129.375 54.769531 130.316406 C 52.792969 132.03125 50.453125 132.699219 48.441406 134.25 C 47.695312 134.835938 48.738281 136.953125 49.464844 136.339844 C 51.4375 134.734375 53.796875 133.964844 55.6875 132.230469 C 57.246094 130.769531 58.492188 128.621094 60.078125 127.066406 C 60.097656 127.214844 60.113281 127.339844 60.128906 127.5 C 60.332031 131.15625 59.292969 133.585938 57.472656 135.683594 C 55.714844 137.769531 53.4375 139.382812 51.988281 141.148438 C 51.371094 141.894531 52.597656 143.875 53.207031 143.09375 C 56.730469 138.6875 62.804688 134.9375 61.464844 126.617188 C 64.515625 124.6875 68.871094 124.820312 72.261719 124.105469 C 76.492188 123.269531 80.734375 122.480469 84.953125 121.5625 L 107.339844 116.542969 C 107.371094 116.535156 107.378906 116.527344 107.414062 116.515625 C 103.511719 119.332031 99.101562 121.84375 94.972656 124.402344 C 90.734375 127.105469 86.398438 129.683594 82.105469 132.300781 C 80.855469 130.390625 78.804688 129.4375 76.683594 128.984375 C 74.589844 128.53125 72.277344 128.6875 70.484375 129.453125 C 69.726562 129.773438 70.394531 131.34375 71.144531 130.988281 C 73.871094 129.78125 78.472656 129.921875 80.714844 132.59375 C 77.691406 131.90625 74.0625 130.964844 71.957031 133.53125 C 71.425781 134.191406 72.511719 135.484375 73.027344 134.792969 C 74.769531 132.578125 77.765625 133.382812 80.441406 133.910156 C 78.15625 134.796875 76.066406 136.050781 73.835938 137.054688 C 73.066406 137.394531 74.03125 138.816406 74.769531 138.457031 C 76.933594 137.410156 78.933594 136.070312 81.160156 135.160156 C 80.304688 137.785156 78.085938 140.066406 76.046875 141.492188 C 75.339844 141.984375 76.410156 143.347656 77.082031 142.84375 C 79.269531 141.210938 81.351562 138.8125 82.34375 135.976562 C 82.921875 139.292969 81.515625 142.878906 79.289062 144.820312 C 78.667969 145.351562 79.761719 146.683594 80.390625 146.101562 C 81.867188 144.75 83.011719 142.597656 83.523438 140.351562 C 84.011719 138.109375 83.921875 135.792969 82.921875 133.585938 C 82.921875 133.542969 82.898438 133.507812 82.894531 133.464844 C 87.453125 130.496094 92.039062 127.566406 96.535156 124.5 C 99.316406 122.652344 102.183594 120.855469 104.933594 118.957031 C 87.542969 135.601562 77.707031 158.5 71.183594 181.371094 C 67.035156 195.910156 66.050781 206.964844 64.570312 222.015625 C 63.851562 229.335938 63.6875 234.78125 63.085938 242.105469 C 62.546875 248.667969 61.628906 255.273438 62.078125 261.871094 C 62.15625 263.027344 63.953125 262.9375 63.875 261.777344 C 63.429688 255.214844 64.34375 248.65625 64.878906 242.125 C 65.492188 234.636719 65.648438 229.027344 66.410156 221.546875 C 67.875 207.246094 68.695312 196.933594 72.5625 183.09375 C 79.160156 159.488281 89.253906 135.847656 107.550781 118.992188 C 106.265625 123.722656 104.503906 128.546875 102.964844 133.21875 C 101.300781 138.476562 99.476562 143.6875 97.699219 148.914062 C 92.972656 147.675781 87.921875 151 85.917969 154.742188 C 85.507812 155.539062 87.148438 156.4375 87.542969 155.585938 C 89.019531 152.5625 92.957031 149.53125 96.738281 150.148438 C 93.671875 151.816406 90.027344 153.40625 90.035156 157.109375 C 90.054688 158.042969 91.867188 158.398438 91.816406 157.449219 C 91.726562 154.355469 94.789062 152.957031 97.441406 151.449219 C 96.144531 153.789062 95.277344 156.3125 94.105469 158.722656 C 93.703125 159.535156 95.503906 160.09375 95.871094 159.273438 C 96.953125 156.875 97.6875 154.347656 98.914062 152.023438 C 100.023438 154.894531 99.78125 158.296875 99.074219 160.9375 C 98.839844 161.8125 100.707031 162.203125 100.90625 161.320312 C 101.589844 158.433594 101.664062 154.859375 100.46875 151.902344 C 103.320312 154.144531 104.636719 158.328125 104.148438 161.476562 C 103.988281 162.410156 105.871094 162.609375 105.988281 161.714844 C 106.464844 157.304688 103.957031 151.601562 99.28125 149.453125 C 99.25 149.414062 99.207031 149.402344 99.171875 149.367188 C 100.914062 143.664062 102.703125 137.980469 104.328125 132.238281 C 105.699219 127.609375 107.242188 122.953125 108.339844 118.277344 C 108.371094 118.253906 108.390625 118.230469 108.421875 118.207031 L 108.796875 139.933594 L 108.71875 152.980469 C 108.742188 155.808594 108.042969 158.839844 108.945312 161.625 C 104.992188 161.949219 101.667969 163.398438 99.019531 165.644531 C 96.414062 167.839844 94.574219 170.527344 94.433594 173.15625 C 94.390625 174.027344 96.632812 174.457031 96.644531 173.582031 C 96.6875 171.46875 98.082031 169.035156 100.144531 167.035156 C 102.222656 165.03125 104.921875 163.605469 108.109375 163.074219 C 105.652344 164.164062 103.929688 166.214844 102.640625 168.382812 C 101.359375 170.585938 100.558594 172.996094 100.050781 174.671875 C 99.789062 175.511719 102.085938 175.730469 102.308594 174.890625 C 103.070312 172.136719 104.800781 166.433594 108.71875 164.394531 C 108.289062 168.125 106.6875 171.8125 106.964844 175.558594 C 107.03125 176.421875 109.335938 176.425781 109.234375 175.558594 C 108.867188 172.082031 110.144531 168.644531 110.570312 165.183594 C 111.511719 166.324219 112.527344 167.347656 113.230469 168.507812 C 114.515625 170.601562 114.761719 172.980469 115.882812 175.136719 C 116.3125 175.941406 118.464844 175.351562 118.011719 174.550781 C 116.832031 172.414062 116.496094 170.054688 115.179688 167.964844 C 114.0625 166.175781 112.253906 164.777344 111.050781 163.023438 C 111.191406 163.03125 111.3125 163.042969 111.46875 163.054688 C 114.921875 163.277344 117.046875 164.890625 118.71875 166.921875 C 120.371094 168.855469 121.511719 171.246094 122.9375 172.945312 C 123.542969 173.660156 125.613281 172.863281 124.984375 172.15625 C 121.40625 168.039062 118.898438 161.707031 110.859375 161.644531 C 109.542969 158.421875 110.386719 154.347656 110.273438 151.035156 C 110.179688 146.90625 110.140625 142.777344 109.96875 138.648438 L 109.023438 118.605469 C 110.992188 122.851562 112.671875 127.472656 114.410156 131.84375 C 116.410156 136.679688 118.261719 141.578125 120.160156 146.460938 C 115.96875 148.4375 114.328125 153.9375 115.144531 157.878906 C 115.335938 158.714844 117.074219 158.351562 116.84375 157.511719 C 116.078125 154.417969 117.082031 149.78125 120.21875 147.953125 C 119 151.007812 117.328125 154.417969 119.589844 157.09375 C 120.171875 157.757812 121.703125 156.910156 121.085938 156.25 C 119.125 154.046875 120.515625 151.1875 121.519531 148.46875 C 122.003906 150.960938 122.910156 153.324219 123.535156 155.792969 C 123.738281 156.632812 125.382812 155.929688 125.148438 155.109375 C 124.472656 152.707031 123.464844 150.417969 122.933594 147.980469 C 125.488281 149.382812 127.402344 152.023438 128.488281 154.367188 C 128.851562 155.144531 130.441406 154.292969 130.050781 153.523438 C 128.78125 151.003906 126.667969 148.382812 123.988281 146.9375 C 127.441406 146.847656 130.933594 149.066406 132.503906 151.65625 C 132.957031 152.429688 134.453125 151.445312 133.984375 150.714844 C 131.644531 147.214844 126.34375 144.601562 121.628906 145.890625 C 121.585938 145.878906 121.546875 145.894531 121.5 145.894531 C 119.289062 140.6875 117.121094 135.460938 114.796875 130.296875 C 113.023438 126.21875 111.347656 122.03125 109.382812 118.066406 L 124.476562 135.433594 L 133.171875 145.917969 C 135.085938 148.160156 136.5625 151.050781 139.152344 152.675781 C 136.1875 155.574219 134.519531 158.984375 133.902344 162.542969 C 133.28125 166.039062 133.625 169.433594 135.273438 171.625 C 135.820312 172.351562 137.902344 171.1875 137.324219 170.476562 C 135.941406 168.757812 135.429688 165.890625 135.730469 162.902344 C 136.054688 159.910156 137.234375 156.945312 139.445312 154.390625 C 136.992188 159.394531 139.292969 165.632812 140.773438 169.070312 C 141.128906 169.914062 143.105469 168.554688 142.726562 167.734375 C 141.496094 165.03125 139.03125 159.285156 140.820312 155.035156 C 142.980469 158.300781 144.164062 162.328125 146.90625 165.136719 C 147.535156 165.78125 149.394531 164.238281 148.730469 163.617188 C 146.101562 161.085938 144.824219 157.476562 142.839844 154.425781 C 144.351562 154.695312 145.828125 154.808594 147.1875 155.277344 C 149.628906 156.09375 151.421875 157.832031 153.769531 158.796875 C 154.652344 159.15625 155.996094 157.242188 155.09375 156.90625 C 152.707031 155.988281 150.859375 154.324219 148.390625 153.539062 C 146.304688 152.871094 143.867188 152.921875 141.769531 152.367188 C 141.882812 152.269531 141.980469 152.191406 142.101562 152.089844 C 147.972656 147.882812 153.316406 151.429688 157.925781 152.300781 C 158.894531 152.472656 160.03125 150.464844 159.042969 150.320312 C 153.367188 149.382812 147.171875 146.039062 140.691406 151.398438 C 137.46875 149.699219 135.414062 145.886719 133.097656 143.3125 C 130.253906 140.070312 127.449219 136.804688 124.535156 133.613281 L 109.886719 117.746094 C 114.402344 119.855469 118.917969 122.476562 123.320312 124.847656 C 128.207031 127.402344 133.019531 130.113281 137.851562 132.765625 C 136.886719 135.09375 136.90625 137.429688 137.6875 139.734375 C 138.476562 142.023438 139.882812 144.132812 141.578125 145.402344 C 142.332031 145.972656 143.394531 144.4375 142.640625 143.914062 C 139.886719 141.917969 137.71875 137.597656 138.894531 133.929688 C 140.078125 137.289062 140.9375 141.097656 144.609375 141.75 C 145.535156 141.894531 146.222656 140.195312 145.269531 140.074219 C 142.246094 139.640625 141.261719 136.308594 140.308594 133.472656 C 142.382812 135.152344 144.714844 136.453125 146.878906 138.019531 C 147.605469 138.558594 148.492188 136.902344 147.75 136.394531 C 145.582031 134.917969 143.21875 133.75 141.15625 132.140625 C 144.117188 131.527344 147.417969 132.351562 149.90625 133.515625 C 150.722656 133.902344 151.464844 132.144531 150.628906 131.792969 C 147.917969 130.621094 144.378906 129.90625 141.257812 130.5625 C 144.015625 128.164062 148.375 127.613281 151.335938 128.621094 C 152.191406 128.925781 152.757812 127.121094 151.890625 126.851562 C 149.769531 126.179688 147.152344 126.292969 144.804688 127.054688 C 142.332031 127.785156 140.179688 129.15625 138.683594 131.324219 C 138.644531 131.347656 138.621094 131.382812 138.582031 131.414062 C 133.273438 128.699219 127.988281 125.945312 122.613281 123.347656 C 118.339844 121.21875 114.085938 118.917969 109.714844 117.027344 C 109.828125 116.925781 109.902344 116.820312 109.945312 116.710938 L 132.332031 120.25 L 145.726562 122.691406 C 148.636719 123.175781 151.609375 124.441406 154.652344 124.019531 C 154.359375 126.082031 154.519531 128.03125 154.992188 129.878906 C 155.359375 131.699219 156.027344 133.414062 156.914062 134.964844 C 158.714844 138.0625 161.214844 140.457031 163.855469 141.066406 C 164.777344 141.292969 165.53125 139.03125 164.628906 138.851562 C 162.464844 138.421875 160.207031 136.542969 158.566406 134.0625 C 157 131.585938 155.824219 128.503906 155.972656 125.136719 C 157.207031 130.546875 163.171875 133.890625 166.40625 135.554688 C 167.222656 135.976562 167.898438 133.664062 167.082031 133.285156 C 164.378906 131.996094 158.699219 129.144531 157.449219 124.75 C 161.195312 125.863281 164.667969 128.183594 168.578125 128.578125 C 169.476562 128.667969 169.941406 126.289062 169.027344 126.238281 C 165.386719 125.988281 162.113281 124.050781 158.574219 122.976562 C 159.839844 122.203125 161.109375 121.34375 162.441406 120.824219 C 164.851562 119.878906 167.339844 120.050781 169.769531 119.28125 C 170.710938 118.964844 170.503906 116.628906 169.582031 116.957031 Z M 169.582031 116.957031 " fill-opacity="1" fill-rule="nonzero"/></g><path fill="#ffbd59" d="M 238.746094 88.332031 C 236.8125 89.398438 233.875 89.40625 231.023438 88.566406 C 229.589844 88.148438 228.203125 87.496094 226.898438 86.636719 C 225.542969 85.808594 224.308594 84.746094 223.296875 83.402344 C 227.726562 86.742188 234.417969 85.480469 237.984375 84.667969 C 238.878906 84.46875 237.90625 82.261719 237.035156 82.496094 C 234.164062 83.234375 227.957031 84.710938 224.175781 82.152344 C 227.761719 80.597656 231.914062 80.140625 235.160156 77.925781 C 235.910156 77.414062 234.734375 75.296875 234.003906 75.84375 C 231.046875 78 227.308594 78.609375 223.902344 80.066406 C 224.378906 78.65625 224.796875 77.1875 225.484375 75.929688 C 226.722656 73.65625 228.742188 72.1875 230.109375 70.035156 C 230.632812 69.210938 228.960938 67.566406 228.464844 68.410156 C 227.191406 70.566406 225.203125 72.128906 223.996094 74.421875 C 222.964844 76.371094 222.578125 78.792969 221.660156 80.777344 C 221.585938 80.640625 221.527344 80.535156 221.449219 80.394531 C 219.917969 77.089844 220.265625 74.320312 221.128906 71.816406 C 222.035156 69.289062 223.609375 67 224.417969 64.808594 C 224.777344 63.867188 222.96875 62.421875 222.652344 63.378906 C 221.785156 66.007812 220.109375 68.84375 219.308594 71.820312 C 218.902344 73.316406 218.703125 74.851562 218.882812 76.445312 C 218.988281 78.097656 219.46875 79.8125 220.523438 81.671875 C 218.351562 84.515625 215.378906 85.800781 212.445312 87.640625 C 210.289062 88.953125 206.980469 90.269531 204.898438 92.277344 L 213.867188 88.105469 C 216.40625 86.609375 219.5 85.664062 221.5625 83.386719 C 222.664062 85.152344 224.050781 86.535156 225.589844 87.65625 C 227.03125 88.816406 228.660156 89.699219 230.332031 90.3125 C 233.710938 91.519531 237.132812 91.761719 239.558594 90.53125 C 240.410156 90.113281 239.566406 87.882812 238.746094 88.332031 Z M 238.746094 88.332031 " fill-opacity="1" fill-rule="nonzero"/><path fill="#ffbd59" d="M 195.980469 59.992188 C 194.746094 61.195312 192.539062 61.8125 190.222656 61.769531 C 189.054688 61.753906 187.875 61.554688 186.71875 61.175781 C 185.523438 60.832031 184.378906 60.292969 183.335938 59.492188 C 187.363281 61.078125 192.132812 58.746094 194.648438 57.394531 C 195.277344 57.0625 194.089844 55.601562 193.480469 55.960938 C 191.480469 57.113281 187.113281 59.515625 183.742188 58.371094 C 186.113281 56.453125 189.144531 55.25 191.125 52.914062 C 191.582031 52.375 190.257812 51.023438 189.820312 51.589844 C 188.042969 53.824219 185.359375 55.058594 183.101562 56.863281 C 183.164062 55.699219 183.171875 54.511719 183.429688 53.421875 C 183.890625 51.457031 185.105469 49.933594 185.6875 48.027344 C 185.910156 47.296875 184.3125 46.410156 184.113281 47.144531 C 183.605469 49.03125 182.433594 50.621094 182 52.59375 C 181.628906 54.269531 181.84375 56.175781 181.5625 57.855469 C 181.480469 57.773438 181.410156 57.703125 181.328125 57.609375 C 179.488281 55.441406 179.175781 53.285156 179.304688 51.222656 C 179.464844 49.132812 180.171875 47.085938 180.324219 45.269531 C 180.398438 44.484375 178.738281 43.773438 178.699219 44.558594 C 178.589844 46.71875 177.917969 49.199219 177.9375 51.605469 C 177.941406 52.8125 178.109375 54.003906 178.578125 55.167969 C 179 56.386719 179.714844 57.578125 180.894531 58.757812 C 179.855469 61.34375 177.886719 62.933594 176.058594 64.921875 C 174.710938 66.351562 172.492188 68.03125 171.34375 69.972656 L 177.226562 64.984375 C 178.828125 63.332031 180.953125 61.980469 182.03125 59.839844 C 183.226562 60.941406 184.558594 61.691406 185.941406 62.210938 C 187.265625 62.789062 188.675781 63.113281 190.0625 63.226562 C 192.855469 63.433594 195.480469 62.90625 197.046875 61.472656 C 197.601562 60.980469 196.5 59.480469 195.980469 59.992188 Z M 195.980469 59.992188 " fill-opacity="1" fill-rule="nonzero"/><g clip-path="url(#70701110a9)"><path fill="#ffbd59" d="M 242.292969 45.792969 C 241.117188 46.453125 239.324219 46.476562 237.578125 45.984375 C 236.699219 45.738281 235.847656 45.347656 235.046875 44.832031 C 234.210938 44.335938 233.453125 43.695312 232.824219 42.878906 C 235.550781 44.886719 239.628906 44.078125 241.804688 43.5625 C 242.347656 43.4375 241.738281 42.097656 241.210938 42.246094 C 239.460938 42.714844 235.675781 43.652344 233.359375 42.117188 C 235.539062 41.140625 238.074219 40.839844 240.042969 39.46875 C 240.5 39.152344 239.765625 37.867188 239.324219 38.203125 C 237.53125 39.539062 235.25 39.933594 233.183594 40.84375 C 233.464844 39.980469 233.707031 39.078125 234.121094 38.308594 C 234.863281 36.914062 236.089844 36.003906 236.914062 34.679688 C 237.230469 34.171875 236.199219 33.179688 235.902344 33.699219 C 235.140625 35.023438 233.929688 35.988281 233.210938 37.394531 C 232.59375 38.589844 232.371094 40.070312 231.824219 41.289062 C 231.777344 41.210938 231.738281 41.140625 231.691406 41.054688 C 230.734375 39.046875 230.929688 37.355469 231.445312 35.820312 C 231.984375 34.273438 232.933594 32.867188 233.410156 31.519531 C 233.625 30.945312 232.515625 30.070312 232.324219 30.65625 C 231.808594 32.269531 230.800781 34.011719 230.335938 35.835938 C 230.097656 36.75 229.984375 37.6875 230.105469 38.660156 C 230.179688 39.667969 230.480469 40.710938 231.136719 41.839844 C 229.828125 43.585938 228.019531 44.394531 226.238281 45.535156 C 224.933594 46.347656 222.917969 47.171875 221.660156 48.414062 L 227.113281 45.8125 C 228.65625 44.882812 230.535156 44.285156 231.785156 42.882812 C 232.46875 43.953125 233.324219 44.789062 234.269531 45.464844 C 235.15625 46.164062 236.15625 46.691406 237.183594 47.058594 C 239.253906 47.777344 241.34375 47.902344 242.820312 47.136719 C 243.316406 46.871094 242.789062 45.515625 242.292969 45.792969 Z M 242.292969 45.792969 " fill-opacity="1" fill-rule="nonzero"/></g><g fill="#474645" fill-opacity="1"><g transform="translate(147.039871, 245.746967)"><g><path d="M 6.265625 0.703125 C 4.222656 0.703125 3.203125 0.125 3.203125 -1.03125 C 3.203125 -1.945312 3.765625 -2.40625 4.890625 -2.40625 L 7.203125 -2.171875 C 9.085938 -2.171875 10.359375 -3.21875 11.015625 -5.3125 C 11.546875 -7.101562 11.8125 -10.304688 11.8125 -14.921875 L 11.8125 -48.15625 C 11.8125 -52.769531 11.59375 -55.789062 11.15625 -57.21875 C 10.71875 -58.65625 10.191406 -59.628906 9.578125 -60.140625 C 8.960938 -60.660156 8.171875 -60.921875 7.203125 -60.921875 L 4.890625 -60.734375 C 3.765625 -60.734375 3.203125 -61.1875 3.203125 -62.09375 C 3.203125 -63.257812 4.0625 -63.84375 5.78125 -63.84375 C 7.507812 -63.84375 9.015625 -63.71875 10.296875 -63.46875 C 11.585938 -63.21875 12.863281 -63.09375 14.125 -63.09375 C 17.445312 -63.09375 20.207031 -63.25 22.40625 -63.5625 C 25.738281 -64.03125 29.5625 -64.265625 33.875 -64.265625 C 38.1875 -64.265625 42.484375 -63.492188 46.765625 -61.953125 C 51.054688 -60.421875 54.738281 -58.242188 57.8125 -55.421875 C 64.375 -49.421875 67.65625 -41.539062 67.65625 -31.78125 C 67.65625 -22.519531 64.4375 -14.8125 58 -8.65625 C 51.34375 -2.257812 42.617188 0.9375 31.828125 0.9375 C 29.222656 0.9375 26.695312 0.828125 24.25 0.609375 C 19.695312 0.203125 16.398438 0 14.359375 0 Z M 19.203125 -21.703125 C 19.203125 -16.117188 19.34375 -10.925781 19.625 -6.125 C 23.800781 -3.957031 28.492188 -2.875 33.703125 -2.875 C 37.503906 -2.875 41.445312 -3.769531 45.53125 -5.5625 C 51.988281 -8.382812 56.207031 -13.4375 58.1875 -20.71875 C 58.914062 -23.289062 59.28125 -26.625 59.28125 -30.71875 C 59.28125 -34.8125 58.578125 -38.78125 57.171875 -42.625 C 55.773438 -46.476562 53.820312 -49.722656 51.3125 -52.359375 C 46.195312 -57.785156 39.3125 -60.5 30.65625 -60.5 C 24.46875 -60.5 20.921875 -59.679688 20.015625 -58.046875 C 19.535156 -57.171875 19.28125 -56.175781 19.25 -55.0625 C 19.21875 -53.945312 19.203125 -52.859375 19.203125 -51.796875 Z M 19.203125 -21.703125 "/></g></g><g transform="translate(219.402363, 245.746967)"><g><path d="M 10.5 0 C 8.894531 0 7.394531 0.113281 6 0.34375 C 4.601562 0.582031 3.097656 0.703125 1.484375 0.703125 C -0.128906 0.703125 -0.9375 0.175781 -0.9375 -0.875 C -0.9375 -1.925781 -0.203125 -2.453125 1.265625 -2.453125 C 2.804688 -2.453125 3.90625 -2.734375 4.5625 -3.296875 C 5.632812 -4.265625 6.6875 -5.847656 7.71875 -8.046875 C 8.757812 -10.242188 9.722656 -12.300781 10.609375 -14.21875 C 11.503906 -16.132812 12.53125 -18.367188 13.6875 -20.921875 C 14.851562 -23.484375 16.132812 -26.34375 17.53125 -29.5 C 18.925781 -32.65625 20.394531 -36.003906 21.9375 -39.546875 C 25.957031 -48.867188 28.609375 -55.140625 29.890625 -58.359375 C 31.179688 -61.578125 31.894531 -63.359375 32.03125 -63.703125 C 32.175781 -64.046875 32.328125 -64.359375 32.484375 -64.640625 C 32.890625 -65.296875 33.234375 -65.625 33.515625 -65.625 C 33.804688 -65.625 34.046875 -65.582031 34.234375 -65.5 C 34.421875 -65.425781 34.625 -65.28125 34.84375 -65.0625 C 35.3125 -64.46875 35.78125 -63.582031 36.25 -62.40625 C 36.71875 -61.226562 37.351562 -59.632812 38.15625 -57.625 C 38.957031 -55.613281 39.875 -53.335938 40.90625 -50.796875 C 41.945312 -48.253906 43.046875 -45.523438 44.203125 -42.609375 C 45.367188 -39.691406 46.539062 -36.78125 47.71875 -33.875 C 48.894531 -30.96875 50.039062 -28.148438 51.15625 -25.421875 C 52.269531 -22.691406 53.265625 -20.226562 54.140625 -18.03125 C 56.835938 -11.46875 58.5625 -7.539062 59.3125 -6.25 C 60.070312 -4.96875 60.703125 -4.078125 61.203125 -3.578125 C 61.984375 -2.828125 63.144531 -2.453125 64.6875 -2.453125 C 66.226562 -2.453125 67 -1.925781 67 -0.875 C 67 0.175781 66.007812 0.703125 64.03125 0.703125 C 63.1875 0.703125 62.457031 0.660156 61.84375 0.578125 C 61.226562 0.503906 60.609375 0.4375 59.984375 0.375 C 58.160156 0.125 56.539062 0 55.125 0 L 46.046875 0.703125 C 44.003906 0.703125 42.984375 0.125 42.984375 -1.03125 C 42.984375 -1.976562 43.550781 -2.453125 44.6875 -2.453125 L 47.5 -2.125 C 48.695312 -2.125 49.484375 -2.378906 49.859375 -2.890625 C 50.234375 -3.410156 50.421875 -4.0625 50.421875 -4.84375 C 50.421875 -6.320312 49.796875 -8.613281 48.546875 -11.71875 L 44.625 -21.515625 L 18.5 -21.515625 C 17.75 -19.628906 17.050781 -17.898438 16.40625 -16.328125 C 15.757812 -14.765625 15.171875 -13.242188 14.640625 -11.765625 C 13.796875 -9.378906 13.375 -7.503906 13.375 -6.140625 C 13.375 -4.773438 13.613281 -3.769531 14.09375 -3.125 C 14.582031 -2.488281 15.503906 -2.171875 16.859375 -2.171875 L 19.6875 -2.40625 C 20.8125 -2.40625 21.375 -1.945312 21.375 -1.03125 C 21.375 0.125 20.351562 0.703125 18.3125 0.703125 Z M 43.03125 -25.515625 L 31.828125 -53.578125 C 29.660156 -48.085938 25.785156 -38.734375 20.203125 -25.515625 Z M 43.03125 -25.515625 "/></g></g><g transform="translate(285.926892, 245.746967)"><g><path d="M 6.40625 0.703125 C 4.363281 0.703125 3.34375 0.125 3.34375 -1.03125 C 3.34375 -1.945312 3.90625 -2.40625 5.03125 -2.40625 L 7.34375 -2.171875 C 9.226562 -2.171875 10.484375 -3.21875 11.109375 -5.3125 C 11.671875 -7.101562 11.953125 -10.304688 11.953125 -14.921875 L 11.953125 -48.0625 C 11.953125 -52.707031 11.734375 -55.726562 11.296875 -57.125 C 10.859375 -58.53125 10.332031 -59.488281 9.71875 -60 C 9.101562 -60.519531 8.3125 -60.78125 7.34375 -60.78125 L 5.03125 -60.546875 C 3.90625 -60.546875 3.34375 -61.015625 3.34375 -61.953125 C 3.34375 -63.179688 4.363281 -63.796875 6.40625 -63.796875 L 12.578125 -63.09375 C 13.890625 -63.09375 15.066406 -63.1875 16.109375 -63.375 L 59.46875 -12.953125 L 59.46875 -48.15625 C 59.46875 -52.738281 59.222656 -55.753906 58.734375 -57.203125 C 58.242188 -58.648438 57.6875 -59.628906 57.0625 -60.140625 C 56.4375 -60.660156 55.617188 -60.921875 54.609375 -60.921875 L 52.3125 -60.734375 C 51.175781 -60.734375 50.609375 -61.1875 50.609375 -62.09375 C 50.609375 -63.257812 51.628906 -63.84375 53.671875 -63.84375 C 54.453125 -63.84375 55.503906 -63.734375 56.828125 -63.515625 C 58.492188 -63.234375 60 -63.09375 61.34375 -63.09375 C 62.695312 -63.09375 64.015625 -63.21875 65.296875 -63.46875 C 66.585938 -63.71875 68.09375 -63.84375 69.8125 -63.84375 C 71.539062 -63.84375 72.40625 -63.257812 72.40625 -62.09375 C 72.40625 -61.1875 71.84375 -60.734375 70.71875 -60.734375 L 68.40625 -60.921875 C 66.488281 -60.921875 65.21875 -59.867188 64.59375 -57.765625 C 64.0625 -56.097656 63.796875 -52.894531 63.796875 -48.15625 L 63.796875 -0.609375 C 63.796875 0.453125 63.703125 1.15625 63.515625 1.5 C 63.328125 1.851562 63.03125 2.03125 62.625 2.03125 C 62.050781 2.03125 61.15625 1.367188 59.9375 0.046875 L 16.53125 -50.234375 L 16.53125 -14.921875 C 16.53125 -10.179688 16.738281 -7.128906 17.15625 -5.765625 C 17.582031 -4.398438 18.097656 -3.457031 18.703125 -2.9375 C 19.316406 -2.425781 20.128906 -2.171875 21.140625 -2.171875 L 23.40625 -2.40625 C 24.53125 -2.40625 25.09375 -1.945312 25.09375 -1.03125 C 25.09375 0.125 24.191406 0.703125 22.390625 0.703125 C 20.585938 0.703125 18.984375 0.582031 17.578125 0.34375 C 16.179688 0.113281 14.820312 0 13.5 0 C 12.1875 0 10.894531 0.113281 9.625 0.34375 C 8.351562 0.582031 7.28125 0.703125 6.40625 0.703125 Z M 6.40625 0.703125 "/></g></g><g transform="translate(359.13683, 245.746967)"><g><path d="M 6.265625 0.703125 C 4.222656 0.703125 3.203125 0.125 3.203125 -1.03125 C 3.203125 -1.945312 3.765625 -2.40625 4.890625 -2.40625 L 7.203125 -2.171875 C 9.085938 -2.171875 10.359375 -3.21875 11.015625 -5.3125 C 11.546875 -7.101562 11.8125 -10.304688 11.8125 -14.921875 L 11.8125 -48.15625 C 11.8125 -52.769531 11.59375 -55.789062 11.15625 -57.21875 C 10.71875 -58.65625 10.191406 -59.628906 9.578125 -60.140625 C 8.960938 -60.660156 8.171875 -60.921875 7.203125 -60.921875 L 4.890625 -60.734375 C 3.765625 -60.734375 3.203125 -61.1875 3.203125 -62.09375 C 3.203125 -63.257812 4.0625 -63.84375 5.78125 -63.84375 C 7.507812 -63.84375 9.015625 -63.71875 10.296875 -63.46875 C 11.585938 -63.21875 12.863281 -63.09375 14.125 -63.09375 C 17.445312 -63.09375 20.207031 -63.25 22.40625 -63.5625 C 25.738281 -64.03125 29.5625 -64.265625 33.875 -64.265625 C 38.1875 -64.265625 42.484375 -63.492188 46.765625 -61.953125 C 51.054688 -60.421875 54.738281 -58.242188 57.8125 -55.421875 C 64.375 -49.421875 67.65625 -41.539062 67.65625 -31.78125 C 67.65625 -22.519531 64.4375 -14.8125 58 -8.65625 C 51.34375 -2.257812 42.617188 0.9375 31.828125 0.9375 C 29.222656 0.9375 26.695312 0.828125 24.25 0.609375 C 19.695312 0.203125 16.398438 0 14.359375 0 Z M 19.203125 -21.703125 C 19.203125 -16.117188 19.34375 -10.925781 19.625 -6.125 C 23.800781 -3.957031 28.492188 -2.875 33.703125 -2.875 C 37.503906 -2.875 41.445312 -3.769531 45.53125 -5.5625 C 51.988281 -8.382812 56.207031 -13.4375 58.1875 -20.71875 C 58.914062 -23.289062 59.28125 -26.625 59.28125 -30.71875 C 59.28125 -34.8125 58.578125 -38.78125 57.171875 -42.625 C 55.773438 -46.476562 53.820312 -49.722656 51.3125 -52.359375 C 46.195312 -57.785156 39.3125 -60.5 30.65625 -60.5 C 24.46875 -60.5 20.921875 -59.679688 20.015625 -58.046875 C 19.535156 -57.171875 19.28125 -56.175781 19.25 -55.0625 C 19.21875 -53.945312 19.203125 -52.859375 19.203125 -51.796875 Z M 19.203125 -21.703125 "/></g></g><g transform="translate(431.499322, 245.746967)"><g><path d="M 5.65625 0.703125 C 3.925781 0.703125 3.0625 0.125 3.0625 -1.03125 C 3.0625 -1.945312 3.625 -2.40625 4.75 -2.40625 L 7.0625 -2.171875 C 8.820312 -2.171875 10.015625 -2.921875 10.640625 -4.421875 C 11.328125 -6.148438 11.671875 -9.601562 11.671875 -14.78125 L 11.671875 -48.15625 C 11.671875 -53.3125 11.425781 -56.554688 10.9375 -57.890625 C 10.457031 -59.222656 9.914062 -60.0625 9.3125 -60.40625 C 8.71875 -60.75 7.96875 -60.921875 7.0625 -60.921875 L 4.75 -60.734375 C 3.625 -60.734375 3.0625 -61.1875 3.0625 -62.09375 C 3.0625 -63.257812 3.898438 -63.84375 5.578125 -63.84375 C 7.253906 -63.84375 8.632812 -63.800781 9.71875 -63.71875 C 10.800781 -63.644531 11.894531 -63.5625 13 -63.46875 C 15.914062 -63.21875 18.210938 -63.09375 19.890625 -63.09375 C 21.566406 -63.09375 23.347656 -63.128906 25.234375 -63.203125 C 27.117188 -63.285156 29.222656 -63.375 31.546875 -63.46875 C 37.660156 -63.71875 41.898438 -63.84375 44.265625 -63.84375 C 46.640625 -63.84375 47.960938 -63.703125 48.234375 -63.421875 C 48.503906 -63.140625 48.640625 -62.753906 48.640625 -62.265625 C 48.640625 -61.773438 48.628906 -61.3125 48.609375 -60.875 C 48.597656 -60.4375 48.578125 -59.953125 48.546875 -59.421875 C 48.515625 -58.691406 48.414062 -57.613281 48.25 -56.1875 C 48.09375 -54.757812 47.90625 -53.800781 47.6875 -53.3125 C 47.46875 -52.832031 47.15625 -52.59375 46.75 -52.59375 C 46.34375 -52.59375 46.0625 -52.691406 45.90625 -52.890625 C 45.75 -53.097656 45.535156 -53.570312 45.265625 -54.3125 C 45.003906 -55.050781 44.535156 -55.753906 43.859375 -56.421875 C 43.179688 -57.097656 42.117188 -57.65625 40.671875 -58.09375 C 37.847656 -58.945312 32.625 -59.375 25 -59.375 L 20.8125 -59.375 C 20.0625 -59.375 19.582031 -59.257812 19.375 -59.03125 C 19.164062 -58.8125 19.0625 -58.3125 19.0625 -57.53125 L 19.0625 -37.71875 C 22.800781 -37.269531 25.898438 -37.046875 28.359375 -37.046875 C 30.828125 -37.046875 32.585938 -37.0625 33.640625 -37.09375 C 34.691406 -37.125 35.5625 -37.21875 36.25 -37.375 C 37.476562 -37.601562 38.359375 -38.15625 38.890625 -39.03125 C 39.953125 -40.695312 40.816406 -41.53125 41.484375 -41.53125 C 42.328125 -41.53125 42.75 -41.085938 42.75 -40.203125 L 41.109375 -33.515625 L 41.296875 -29.9375 C 41.296875 -27.675781 40.757812 -26.546875 39.6875 -26.546875 C 38.78125 -26.546875 38.328125 -27.148438 38.328125 -28.359375 C 38.328125 -29.566406 38.253906 -30.46875 38.109375 -31.0625 C 37.972656 -31.664062 37.570312 -32.140625 36.90625 -32.484375 C 35.90625 -32.984375 33.457031 -33.234375 29.5625 -33.234375 C 25.675781 -33.234375 22.175781 -33.0625 19.0625 -32.71875 L 19.0625 -21.5625 C 19.0625 -14.625 19.21875 -8.894531 19.53125 -4.375 C 22.082031 -3.8125 24.847656 -3.53125 27.828125 -3.53125 C 30.804688 -3.53125 33.351562 -3.609375 35.46875 -3.765625 C 37.59375 -3.921875 39.421875 -4.234375 40.953125 -4.703125 C 44.003906 -5.617188 46.25 -7.363281 47.6875 -9.9375 C 48.320312 -11.0625 48.953125 -11.625 49.578125 -11.625 C 50.203125 -11.625 50.515625 -11.171875 50.515625 -10.265625 C 50.515625 -9.890625 50.40625 -9.398438 50.1875 -8.796875 C 49.9375 -7.984375 49.578125 -6.769531 49.109375 -5.15625 C 48.640625 -3.539062 48.273438 -2.367188 48.015625 -1.640625 C 47.765625 -0.921875 47.484375 -0.375 47.171875 0 C 46.703125 0.625 45.773438 0.9375 44.390625 0.9375 C 43.015625 0.9375 41.679688 0.925781 40.390625 0.90625 C 39.109375 0.894531 37.757812 0.875 36.34375 0.84375 C 34.707031 0.78125 32.179688 0.65625 28.765625 0.46875 C 20.222656 0.0625 15.210938 -0.078125 13.734375 0.046875 C 12.265625 0.171875 11.15625 0.269531 10.40625 0.34375 C 9.65625 0.425781 8.914062 0.503906 8.1875 0.578125 C 7.46875 0.660156 6.625 0.703125 5.65625 0.703125 Z M 5.65625 0.703125 "/></g></g><g transform="translate(485.782961, 245.746967)"><g><path d="M 5.796875 0.703125 C 4.066406 0.703125 3.203125 0.125 3.203125 -1.03125 C 3.203125 -1.945312 3.765625 -2.40625 4.890625 -2.40625 L 7.203125 -2.171875 C 9.085938 -2.171875 10.359375 -3.21875 11.015625 -5.3125 C 11.546875 -7.101562 11.8125 -10.304688 11.8125 -14.921875 L 11.8125 -48.15625 C 11.8125 -52.769531 11.59375 -55.789062 11.15625 -57.21875 C 10.71875 -58.65625 10.191406 -59.628906 9.578125 -60.140625 C 8.960938 -60.660156 8.171875 -60.921875 7.203125 -60.921875 L 4.890625 -60.734375 C 3.765625 -60.734375 3.203125 -61.1875 3.203125 -62.09375 C 3.203125 -63.257812 4.0625 -63.84375 5.78125 -63.84375 C 7.507812 -63.84375 9.148438 -63.71875 10.703125 -63.46875 C 12.265625 -63.21875 13.882812 -63.09375 15.5625 -63.09375 C 17.238281 -63.09375 18.835938 -63.21875 20.359375 -63.46875 C 21.878906 -63.71875 23.492188 -63.84375 25.203125 -63.84375 C 26.921875 -63.84375 27.78125 -63.257812 27.78125 -62.09375 C 27.78125 -61.1875 27.210938 -60.734375 26.078125 -60.734375 L 23.828125 -60.921875 C 21.910156 -60.921875 20.625 -59.867188 19.96875 -57.765625 C 19.457031 -56.097656 19.203125 -52.894531 19.203125 -48.15625 L 19.203125 -21.5625 C 19.203125 -14.6875 19.363281 -8.988281 19.6875 -4.46875 C 21.96875 -3.84375 24.5 -3.53125 27.28125 -3.53125 C 30.0625 -3.53125 32.476562 -3.6875 34.53125 -4 C 36.59375 -4.3125 38.375 -4.785156 39.875 -5.421875 C 42.695312 -6.578125 44.894531 -8.535156 46.46875 -11.296875 C 47.09375 -12.429688 47.71875 -13 48.34375 -13 C 48.976562 -13 49.296875 -12.539062 49.296875 -11.625 C 49.296875 -11.25 49.1875 -10.765625 48.96875 -10.171875 C 48.71875 -9.359375 48.351562 -8.140625 47.875 -6.515625 C 47.40625 -4.898438 47.019531 -3.660156 46.71875 -2.796875 C 46.425781 -1.929688 46.09375 -1.21875 45.71875 -0.65625 C 44.957031 0.40625 43.910156 0.9375 42.578125 0.9375 C 41.242188 0.9375 39.976562 0.925781 38.78125 0.90625 C 37.59375 0.894531 36.347656 0.863281 35.046875 0.8125 C 33.742188 0.769531 32.335938 0.707031 30.828125 0.625 C 29.328125 0.550781 27.617188 0.46875 25.703125 0.375 C 23.785156 0.28125 22.117188 0.191406 20.703125 0.109375 C 19.296875 0.0351562 17.894531 0 16.5 0 C 15.101562 0 13.941406 0.0351562 13.015625 0.109375 C 12.085938 0.191406 11.25 0.269531 10.5 0.34375 C 9.75 0.425781 9.007812 0.503906 8.28125 0.578125 C 7.5625 0.660156 6.734375 0.703125 5.796875 0.703125 Z M 5.796875 0.703125 "/></g></g><g transform="translate(537.430101, 245.746967)"><g><path d="M 6.875 0.703125 C 4.832031 0.703125 3.8125 0.125 3.8125 -1.03125 C 3.8125 -1.945312 4.378906 -2.40625 5.515625 -2.40625 L 7.8125 -2.171875 C 9.507812 -2.171875 10.6875 -2.984375 11.34375 -4.609375 C 12.0625 -6.429688 12.421875 -9.867188 12.421875 -14.921875 L 12.1875 -48.15625 C 12.1875 -53.34375 11.910156 -56.601562 11.359375 -57.9375 C 10.816406 -59.269531 10.253906 -60.097656 9.671875 -60.421875 C 9.085938 -60.753906 8.390625 -60.921875 7.578125 -60.921875 L 5.265625 -60.734375 C 4.140625 -60.734375 3.578125 -61.1875 3.578125 -62.09375 C 3.578125 -63.257812 4.4375 -63.84375 6.15625 -63.84375 C 7.882812 -63.84375 9.523438 -63.71875 11.078125 -63.46875 C 12.640625 -63.21875 14.265625 -63.09375 15.953125 -63.09375 C 17.648438 -63.09375 19.265625 -63.21875 20.796875 -63.46875 C 22.335938 -63.71875 23.960938 -63.84375 25.671875 -63.84375 C 27.390625 -63.84375 28.25 -63.257812 28.25 -62.09375 C 28.25 -61.1875 27.679688 -60.734375 26.546875 -60.734375 L 24.296875 -60.921875 C 22.597656 -60.921875 21.421875 -60.101562 20.765625 -58.46875 C 20.046875 -56.65625 19.6875 -53.21875 19.6875 -48.15625 L 19.921875 -14.921875 C 19.921875 -9.867188 20.222656 -6.648438 20.828125 -5.265625 C 21.441406 -3.890625 22.0625 -3.03125 22.6875 -2.6875 C 23.320312 -2.34375 24.046875 -2.171875 24.859375 -2.171875 L 27.125 -2.40625 C 28.25 -2.40625 28.8125 -1.945312 28.8125 -1.03125 C 28.8125 0.125 27.804688 0.703125 25.796875 0.703125 C 24.765625 0.703125 23.664062 0.609375 22.5 0.421875 C 18.582031 -0.203125 15.25 -0.3125 12.5 0.09375 C 9.75 0.5 7.875 0.703125 6.875 0.703125 Z M 6.875 0.703125 "/></g></g><g transform="translate(569.350575, 245.746967)"><g><path d="M 4.703125 -31.875 C 4.703125 -36.613281 5.585938 -40.96875 7.359375 -44.9375 C 9.140625 -48.90625 11.539062 -52.328125 14.5625 -55.203125 C 17.59375 -58.078125 21.101562 -60.304688 25.09375 -61.890625 C 29.082031 -63.472656 33.382812 -64.265625 38 -64.265625 C 42.613281 -64.265625 46.894531 -63.425781 50.84375 -61.75 C 54.800781 -60.070312 58.191406 -57.753906 61.015625 -54.796875 C 66.953125 -48.554688 69.921875 -40.632812 69.921875 -31.03125 C 69.921875 -21.925781 66.859375 -14.3125 60.734375 -8.1875 C 54.484375 -1.945312 46.539062 1.171875 36.90625 1.171875 C 27.488281 1.171875 19.738281 -1.976562 13.65625 -8.28125 C 7.6875 -14.5 4.703125 -22.363281 4.703125 -31.875 Z M 12.765625 -34.5625 C 12.765625 -30.476562 13.429688 -26.46875 14.765625 -22.53125 C 16.097656 -18.59375 17.988281 -15.160156 20.4375 -12.234375 C 25.675781 -5.898438 32.296875 -2.734375 40.296875 -2.734375 C 46.484375 -2.734375 51.554688 -5.054688 55.515625 -9.703125 C 59.585938 -14.472656 61.625 -20.75 61.625 -28.53125 C 61.625 -37.726562 59.160156 -45.351562 54.234375 -51.40625 C 49.335938 -57.375 43.140625 -60.359375 35.640625 -60.359375 C 29.453125 -60.359375 24.132812 -58.003906 19.6875 -53.296875 C 15.070312 -48.398438 12.765625 -42.15625 12.765625 -34.5625 Z M 12.765625 -34.5625 "/></g></g><g transform="translate(643.972924, 245.746967)"><g><path d="M 6.40625 0.703125 C 4.363281 0.703125 3.34375 0.125 3.34375 -1.03125 C 3.34375 -1.945312 3.90625 -2.40625 5.03125 -2.40625 L 7.34375 -2.171875 C 9.226562 -2.171875 10.484375 -3.21875 11.109375 -5.3125 C 11.671875 -7.101562 11.953125 -10.304688 11.953125 -14.921875 L 11.953125 -48.0625 C 11.953125 -52.707031 11.734375 -55.726562 11.296875 -57.125 C 10.859375 -58.53125 10.332031 -59.488281 9.71875 -60 C 9.101562 -60.519531 8.3125 -60.78125 7.34375 -60.78125 L 5.03125 -60.546875 C 3.90625 -60.546875 3.34375 -61.015625 3.34375 -61.953125 C 3.34375 -63.179688 4.363281 -63.796875 6.40625 -63.796875 L 12.578125 -63.09375 C 13.890625 -63.09375 15.066406 -63.1875 16.109375 -63.375 L 59.46875 -12.953125 L 59.46875 -48.15625 C 59.46875 -52.738281 59.222656 -55.753906 58.734375 -57.203125 C 58.242188 -58.648438 57.6875 -59.628906 57.0625 -60.140625 C 56.4375 -60.660156 55.617188 -60.921875 54.609375 -60.921875 L 52.3125 -60.734375 C 51.175781 -60.734375 50.609375 -61.1875 50.609375 -62.09375 C 50.609375 -63.257812 51.628906 -63.84375 53.671875 -63.84375 C 54.453125 -63.84375 55.503906 -63.734375 56.828125 -63.515625 C 58.492188 -63.234375 60 -63.09375 61.34375 -63.09375 C 62.695312 -63.09375 64.015625 -63.21875 65.296875 -63.46875 C 66.585938 -63.71875 68.09375 -63.84375 69.8125 -63.84375 C 71.539062 -63.84375 72.40625 -63.257812 72.40625 -62.09375 C 72.40625 -61.1875 71.84375 -60.734375 70.71875 -60.734375 L 68.40625 -60.921875 C 66.488281 -60.921875 65.21875 -59.867188 64.59375 -57.765625 C 64.0625 -56.097656 63.796875 -52.894531 63.796875 -48.15625 L 63.796875 -0.609375 C 63.796875 0.453125 63.703125 1.15625 63.515625 1.5 C 63.328125 1.851562 63.03125 2.03125 62.625 2.03125 C 62.050781 2.03125 61.15625 1.367188 59.9375 0.046875 L 16.53125 -50.234375 L 16.53125 -14.921875 C 16.53125 -10.179688 16.738281 -7.128906 17.15625 -5.765625 C 17.582031 -4.398438 18.097656 -3.457031 18.703125 -2.9375 C 19.316406 -2.425781 20.128906 -2.171875 21.140625 -2.171875 L 23.40625 -2.40625 C 24.53125 -2.40625 25.09375 -1.945312 25.09375 -1.03125 C 25.09375 0.125 24.191406 0.703125 22.390625 0.703125 C 20.585938 0.703125 18.984375 0.582031 17.578125 0.34375 C 16.179688 0.113281 14.820312 0 13.5 0 C 12.1875 0 10.894531 0.113281 9.625 0.34375 C 8.351562 0.582031 7.28125 0.703125 6.40625 0.703125 Z M 6.40625 0.703125 "/></g></g></g></svg>